<svg width="354" height="342" viewBox="0 0 354 342" fill="none" xmlns="http://www.w3.org/2000/svg">
<g clip-path="url(#clip0_4_196)">
<path d="M108.254 267.962C106.693 277.51 99.0009 281.308 83.8493 278.312C68.6976 275.316 62.8666 281.737 61.854 282.971C58.4573 287.147 33.8698 326.759 57.263 338.004C73.7624 345.931 91.0103 320.025 91.0103 320.025C91.0103 320.025 129.921 346.126 183.907 286.765" fill="white"/>
<path d="M133.606 319.865C128.979 319.865 124.557 319.082 120.48 317.519C107.374 312.498 97.7063 299.753 91.7484 279.654C91.6551 279.34 91.6247 279.01 91.659 278.684C91.6932 278.357 91.7913 278.041 91.9478 277.752C92.1043 277.464 92.316 277.209 92.5709 277.002C92.8258 276.796 93.1189 276.642 93.4334 276.548C93.748 276.455 94.0778 276.425 94.4041 276.459C94.7303 276.493 95.0467 276.591 95.335 276.748C95.6234 276.904 95.8781 277.116 96.0846 277.371C96.2911 277.626 96.4454 277.919 96.5386 278.234C102.033 296.763 110.689 308.411 122.269 312.851C138.42 319.053 155.02 309.044 155.188 308.942C155.753 308.595 156.432 308.487 157.077 308.642C157.722 308.796 158.278 309.2 158.625 309.765C158.972 310.331 159.08 311.01 158.926 311.655C158.771 312.3 158.367 312.857 157.802 313.204C157.609 313.321 153.021 316.111 146.174 318.049C142.088 319.23 137.859 319.841 133.606 319.865Z" fill="#371A45"/>
<g opacity="0.35">
<path opacity="0.35" d="M57.2645 338.004C73.7639 345.929 91.0088 320.024 91.0088 320.024C91.0088 320.024 129.92 346.117 183.907 286.764L134.406 274.457C116.872 306.718 88.9569 305.466 88.9569 305.466C88.9569 305.466 79.4413 337.446 54.7343 329.618C48.0914 327.51 49.1469 319.317 47.5733 316.476C46.4292 325.42 48.4044 333.743 57.2645 338.004Z" fill="#371A45"/>
</g>
<path d="M63.807 342C61.1652 342.003 58.5574 341.404 56.1809 340.25C50.3943 337.471 46.7628 332.936 45.39 326.773C43.7499 319.413 45.3767 309.992 50.2275 298.768C53.791 290.521 58.3022 283.382 59.9246 281.391C61.6311 279.299 68.4334 272.716 84.3334 275.86C92.4392 277.463 98.3145 277.051 101.794 274.635C103.948 273.14 105.254 270.824 105.788 267.559C105.826 267.222 105.931 266.896 106.098 266.601C106.266 266.306 106.491 266.047 106.761 265.842C107.032 265.637 107.341 265.489 107.67 265.407C107.999 265.325 108.341 265.312 108.676 265.366C109.011 265.421 109.331 265.543 109.617 265.726C109.903 265.908 110.149 266.147 110.339 266.428C110.53 266.709 110.662 267.025 110.726 267.358C110.791 267.691 110.787 268.034 110.715 268.366C109.96 272.974 107.91 276.465 104.637 278.742C99.9368 282.004 92.9751 282.665 83.3577 280.763C69.852 278.094 64.6883 283.451 63.7907 284.551C61.6739 287.147 46.8721 310.479 50.2614 325.685C51.2947 330.342 53.9416 333.632 58.3391 335.745C72.6848 342.638 88.765 318.873 88.9244 318.631L90.315 316.548L92.3964 317.942C92.482 317.999 101.872 324.079 117.437 323.133C131.929 322.247 154.901 314.936 182.053 285.087C182.508 284.633 183.12 284.372 183.762 284.357C184.404 284.343 185.027 284.576 185.502 285.009C185.977 285.441 186.267 286.04 186.312 286.681C186.357 287.322 186.153 287.956 185.744 288.451C173.233 302.204 160.455 312.556 147.765 319.215C137.502 324.602 127.264 327.607 117.338 328.146C116.231 328.205 115.15 328.233 114.102 328.233C103.007 328.233 95.2455 325.088 91.7233 323.297C89.9223 325.704 86.4414 330.002 81.942 333.875C75.6903 339.265 69.5375 342 63.807 342Z" fill="#371A45"/>
<path d="M177.371 171.17C175.793 170.895 142.555 155.256 120.258 155.575C101.67 155.841 66.2545 218.628 72.4899 235.132C78.2678 250.424 110.428 264.327 110.428 264.327L177.371 171.17Z" fill="white"/>
<path d="M177.371 171.171L166.491 186.313L110.428 264.327C110.428 264.327 94.8336 257.586 83.4138 248.325C78.4316 244.292 74.2495 239.779 72.4899 235.132C66.2545 218.631 101.67 155.836 120.261 155.573C142.555 155.256 175.79 170.895 177.371 171.171Z" fill="white"/>
<g opacity="0.35">
<path opacity="0.35" d="M166.491 186.313L110.428 264.327C110.419 264.325 110.411 264.322 110.403 264.318C110.332 264.284 110.108 264.185 109.734 264.023C109.662 263.99 109.579 263.953 109.494 263.912C109.477 263.907 109.46 263.901 109.445 263.893C109.368 263.859 109.281 263.816 109.194 263.781C108.989 263.68 108.751 263.575 108.493 263.456C108.431 263.423 108.363 263.395 108.297 263.363C108.23 263.33 108.177 263.304 108.113 263.277C108.05 263.25 107.956 263.202 107.874 263.16C107.045 262.771 106.035 262.274 104.894 261.709C104.746 261.642 104.612 261.57 104.469 261.496C104.039 261.279 103.583 261.053 103.128 260.811L102.662 260.57C102.48 260.48 102.296 260.38 102.105 260.282C101.878 260.158 101.645 260.037 101.407 259.912C101.335 259.878 101.268 259.839 101.203 259.801C101.032 259.708 100.861 259.619 100.685 259.525C100.197 259.259 99.6992 258.992 99.1913 258.713C99.1781 258.713 99.1589 258.692 99.1397 258.683C98.7898 258.49 98.4296 258.289 98.0724 258.084C98.0615 258.08 98.0515 258.075 98.0429 258.067C97.7831 257.92 97.5232 257.772 97.259 257.624C97.0937 257.533 96.9283 257.435 96.76 257.336C96.1327 256.973 95.492 256.598 94.841 256.214C94.4277 255.968 94.0099 255.709 93.5892 255.451C93.2083 255.22 92.8245 254.98 92.4422 254.738C92.0599 254.495 91.676 254.25 91.2893 253.999C90.9025 253.748 90.5202 253.496 90.1334 253.243C89.7467 252.991 89.3673 252.729 88.9879 252.468C88.6085 252.207 88.2232 251.944 87.8453 251.672C87.4659 251.406 87.088 251.135 86.716 250.864L85.5956 250.036C85.5351 249.993 85.476 249.946 85.4214 249.906C85.1099 249.667 84.7985 249.428 84.4929 249.19C84.1283 248.905 83.7696 248.617 83.4094 248.327C78.4272 244.295 74.2452 239.782 72.4855 235.135C69.2379 226.525 77.3215 205.307 88.4432 186.951C83.5009 198.616 81.0017 209.137 83.0654 214.599C83.7873 216.519 84.9195 218.4 86.3499 220.243C87.9693 222.334 89.8417 224.216 91.924 225.846C104.464 203.47 127.691 177.438 140.138 178.674C147.334 179.393 155.483 181.906 163.261 184.991C164.345 185.424 165.427 185.864 166.491 186.313Z" fill="#371A45"/>
</g>
<path d="M111.286 267.42L109.439 266.623C103.542 263.986 97.8226 260.97 92.3152 257.595C80.2105 250.15 72.7454 242.889 70.1487 236.017C67.6702 229.456 70.8986 218.385 74.0429 210.254C78.0286 199.958 84.1977 188.336 90.9793 178.368C97.3609 168.987 109.647 153.228 120.22 153.076C128.424 152.957 138.953 154.9 151.515 158.846C161.631 162.023 170.401 165.649 175.113 167.596C176.359 168.112 177.54 168.599 177.918 168.73L181.727 169.392L111.286 267.42ZM120.936 158.07C120.72 158.07 120.508 158.07 120.294 158.07C114.405 158.157 104.752 167.009 95.1126 181.184C88.5362 190.85 82.5561 202.104 78.7062 212.059C74.7648 222.248 73.3506 230.343 74.8268 234.252C76.9879 239.974 83.9231 246.563 94.8838 253.301C99.6385 256.204 104.55 258.842 109.597 261.202L173.466 172.324L173.205 172.217C164.691 168.695 138.987 158.069 120.936 158.069V158.07Z" fill="#371A45"/>
<path d="M119.009 154.504C119.826 155.39 120.604 156.264 121.389 157.153C122.174 158.042 122.945 158.925 123.711 159.828C125.246 161.622 126.756 163.437 128.227 165.291C129.697 167.146 131.145 169.02 132.516 170.967C132.689 171.211 132.863 171.45 133.033 171.695L133.535 172.434C133.867 172.933 134.213 173.414 134.526 173.931C134.838 174.448 135.171 174.944 135.479 175.465L136.38 177.05C136.564 177.375 136.614 177.76 136.518 178.122C136.422 178.483 136.187 178.793 135.865 178.983C135.543 179.174 135.16 179.231 134.796 179.141C134.433 179.051 134.12 178.823 133.923 178.504L133.895 178.46C132.725 176.551 131.344 174.712 129.921 172.912C128.498 171.112 126.984 169.358 125.447 167.629C123.91 165.9 122.331 164.2 120.723 162.524C119.923 161.685 119.116 160.853 118.301 160.028C117.489 159.206 116.662 158.376 115.849 157.586C115.433 157.177 115.196 156.62 115.189 156.037C115.183 155.454 115.407 154.892 115.814 154.473C116.22 154.055 116.775 153.815 117.358 153.805C117.941 153.795 118.505 154.016 118.925 154.42C118.952 154.444 118.981 154.476 119.009 154.504Z" fill="#371A45"/>
<path d="M86.3027 189.219L102.014 201.524C102.697 202.056 103.183 202.801 103.397 203.64C103.611 204.479 103.54 205.366 103.195 206.16C100.594 212.144 93.8667 225.652 85.9233 226.29C79.3351 226.82 72.608 221.742 70.8278 215.53C68.8378 208.589 76.5465 196.076 80.6592 190.084C80.9617 189.643 81.3516 189.268 81.8047 188.983C82.2578 188.698 82.7645 188.509 83.2935 188.428C83.8225 188.347 84.3625 188.375 84.8801 188.511C85.3977 188.647 85.8819 188.888 86.3027 189.219Z" fill="white"/>
<g opacity="0.35">
<path opacity="0.35" d="M103.186 206.162C100.588 212.145 93.8579 225.654 85.9219 226.287C79.3321 226.819 72.6066 221.74 70.8248 215.527C69.604 211.253 72.0486 204.877 75.0689 199.21C74.0355 202.362 73.7698 205.301 74.2791 207.689C77.2005 221.367 89.8101 215.976 89.8101 215.976C89.8101 215.976 89.3392 219.017 90.1128 219.725C93.3456 222.678 100.133 210.911 103.505 204.74C103.492 205.23 103.383 205.713 103.186 206.162Z" fill="#371A45"/>
</g>
<path d="M84.9919 228.827C77.7585 228.827 70.4824 223.381 68.4304 216.218C66.3047 208.799 72.7896 197.142 78.6044 188.669C79.0999 187.947 79.7383 187.334 80.4801 186.867C81.2218 186.401 82.0512 186.092 82.917 185.959C83.7829 185.826 84.6668 185.872 85.5142 186.094C86.3616 186.316 87.1544 186.71 87.8439 187.25L103.555 199.555C104.673 200.43 105.469 201.651 105.818 203.026C106.168 204.402 106.051 205.855 105.486 207.157C104.029 210.506 101.648 215.397 98.595 219.681C94.5296 225.382 90.3357 228.443 86.1285 228.781C85.7506 228.812 85.3698 228.827 84.9919 228.827ZM83.8906 190.877C83.818 190.877 83.7455 190.883 83.6736 190.893C83.4835 190.922 83.3011 190.989 83.1379 191.09C82.9746 191.192 82.8339 191.326 82.7244 191.484C75.5811 201.912 72.0383 210.638 73.2355 214.842C74.6747 219.862 79.933 223.828 84.9742 223.828C85.2266 223.828 85.4775 223.818 85.727 223.799C91.1299 223.363 97.1085 213.888 100.902 205.164C101.026 204.877 101.051 204.557 100.974 204.254C100.896 203.951 100.721 203.683 100.474 203.491L84.7631 191.187C84.515 190.99 84.2073 190.883 83.8906 190.884V190.877Z" fill="#371A45"/>
<path d="M76.4461 220.94H76.4299H76.4476L76.5067 220.949C76.5524 220.949 76.5967 220.962 76.6543 220.967C76.7547 220.978 76.8639 220.986 76.9746 220.99C77.1946 221.002 77.4278 221.001 77.6611 220.99C78.142 220.971 78.6212 220.922 79.0959 220.843C79.5853 220.761 80.0694 220.65 80.5455 220.51C81.0317 220.371 81.5098 220.205 81.9774 220.013C83.9153 219.2 85.7005 218.063 87.2563 216.65C88.0635 215.927 88.8256 215.155 89.5385 214.338L90.0729 213.713L90.6014 213.061C90.78 212.845 90.9498 212.618 91.121 212.404C91.2922 212.189 91.4679 211.961 91.6318 211.738C92.3064 210.852 92.947 209.935 93.5375 208.995C93.8328 208.526 94.1147 208.052 94.373 207.568C94.5015 207.327 94.6255 207.083 94.7421 206.84C94.7967 206.718 94.8558 206.596 94.9045 206.476C94.9296 206.416 94.9561 206.355 94.9783 206.298L95.0373 206.15L95.0669 206.072C95.1282 205.918 95.2448 205.794 95.3937 205.722C95.5426 205.651 95.7129 205.638 95.8707 205.687C96.0286 205.735 96.1625 205.841 96.2461 205.983C96.3296 206.126 96.3565 206.294 96.3216 206.456L96.2891 206.594L96.2596 206.711C96.239 206.789 96.2168 206.859 96.1947 206.937C96.1533 207.085 96.1046 207.232 96.0574 207.371C95.96 207.656 95.8551 207.934 95.7459 208.21C95.5274 208.761 95.2839 209.294 95.0329 209.825C94.5251 210.881 93.9656 211.904 93.3737 212.906C93.226 213.16 93.0784 213.403 92.9308 213.653C92.7832 213.902 92.6356 214.15 92.4717 214.391L92.0038 215.129L91.5048 215.868C90.8258 216.853 90.0863 217.795 89.2905 218.688C87.6538 220.541 85.7134 222.101 83.5525 223.301C82.9964 223.607 82.4243 223.882 81.8387 224.127C81.2447 224.377 80.6364 224.592 80.0171 224.77C79.3871 224.953 78.7461 225.096 78.098 225.197C77.7659 225.246 77.4308 225.289 77.0824 225.311C76.9082 225.324 76.7325 225.333 76.548 225.336C76.458 225.336 76.3605 225.336 76.2646 225.336H76.117H76.0284H75.9826H75.9059C75.3254 225.262 74.7982 224.96 74.4401 224.498C74.082 224.035 73.9224 223.448 73.9964 222.868C74.0704 222.287 74.3719 221.76 74.8347 221.402C75.2974 221.043 75.8834 220.884 76.4639 220.958L76.4461 220.94Z" fill="#371A45"/>
<path d="M215.487 224.137C215.487 224.137 223.146 225.202 235.101 224.314C259.016 222.533 300.159 212.969 331.774 171.548C335.896 166.151 355.848 163.94 350.64 152.697C349.061 149.286 344.921 148.562 344.921 148.562C344.921 148.562 350.987 146.077 349.579 139.763C347.35 129.785 329.216 134.063 329.216 134.063C329.216 134.063 335.286 127.671 336.633 121.659C337.57 117.443 334.628 113.631 332.014 112.624C324.596 109.772 309.351 120.974 300.078 127.243C291.34 133.14 285.717 140.774 279.916 148.611C270.864 160.826 261.364 173.534 238.9 180.922C231.371 183.392 222.399 185.272 211.496 186.332L214.185 211.832L215.487 224.137Z" fill="white"/>
<g opacity="0.35">
<path opacity="0.35" d="M215.487 224.137C215.487 224.137 223.146 225.202 235.101 224.314C259.016 222.533 300.159 212.969 331.774 171.548C335.264 166.985 350.079 164.698 351.408 157.297C349.771 153.799 336.038 163.767 332.365 164.802C325.247 166.811 323.686 162.475 323.391 160.579C322.266 153.373 348.997 149.597 349.331 143.289C349.757 135.234 341.187 149.417 321.009 149.813C314.627 149.939 313.037 142.056 312.795 142.611C305.562 158.937 317.972 170.102 310.72 180.778C289.052 212.674 256.313 207.695 236.067 209.202C224.11 210.088 216.453 209.025 216.453 209.025L215.151 196.714L214.024 186.057C213.193 186.155 212.347 186.243 211.496 186.326L214.185 211.826L215.487 224.137Z" fill="#371A45"/>
</g>
<path d="M225.765 227.177C219.364 227.177 215.48 226.661 215.145 226.613C214.814 226.575 214.494 226.471 214.204 226.308C213.914 226.144 213.659 225.924 213.455 225.661C213.251 225.398 213.102 225.096 213.016 224.774C212.93 224.452 212.909 224.116 212.955 223.786C213.001 223.456 213.112 223.139 213.282 222.852C213.453 222.566 213.678 222.317 213.946 222.119C214.214 221.921 214.519 221.778 214.843 221.7C215.166 221.622 215.503 221.609 215.831 221.662C215.998 221.686 233.014 223.923 255.482 218.665C276.138 213.829 305.798 201.466 329.792 170.03C331.563 167.717 335.035 166.126 338.718 164.439C342.939 162.508 347.723 160.319 348.781 157.453C349.171 156.397 349.038 155.187 348.373 153.751C347.403 151.654 344.654 151.061 344.481 151.025C343.942 150.941 343.445 150.681 343.068 150.285C342.691 149.89 342.455 149.381 342.396 148.838C342.337 148.295 342.459 147.747 342.743 147.28C343.026 146.813 343.456 146.453 343.965 146.254C344.436 146.049 348.037 144.335 347.137 140.309C346.842 138.966 346.139 137.99 344.94 137.238C340.84 134.667 332.611 135.832 329.787 136.5C329.264 136.623 328.714 136.574 328.221 136.36C327.727 136.145 327.316 135.778 327.048 135.311C326.78 134.845 326.67 134.304 326.734 133.77C326.797 133.236 327.032 132.736 327.402 132.346C327.456 132.287 333.011 126.37 334.192 121.114C334.865 118.105 332.549 115.503 331.119 114.957C329.572 114.366 326.293 114.388 319.473 117.894C314.296 120.552 308.659 124.406 304.13 127.501C303.204 128.134 302.315 128.741 301.472 129.307C293.162 134.918 287.771 142.196 282.062 149.903C275.893 158.231 269.514 166.845 258.991 173.986C247.144 182.023 231.681 186.875 211.736 188.816C211.079 188.875 210.425 188.672 209.917 188.251C209.409 187.83 209.087 187.225 209.023 186.568C208.96 185.911 209.158 185.255 209.576 184.744C209.993 184.233 210.596 183.908 211.252 183.839C253.766 179.705 266.112 163.041 278.047 146.923C283.754 139.218 289.656 131.25 298.677 125.16C299.508 124.599 300.387 123.998 301.306 123.371C305.95 120.197 311.731 116.247 317.185 113.445C324.172 109.853 329.167 108.849 332.908 110.286C336.83 111.795 340.24 116.943 339.065 122.203C338.386 125.24 336.69 128.294 335.029 130.735C335.149 130.726 335.27 130.718 335.391 130.713C340.599 130.417 344.704 131.191 347.592 133C349.931 134.466 351.418 136.559 352.011 139.218C352.875 143.08 351.585 146.011 349.809 148.016C351.146 148.93 352.216 150.184 352.909 151.648C354.144 154.306 354.333 156.849 353.47 159.179C351.698 163.995 345.904 166.642 340.8 168.98C337.837 170.335 334.772 171.738 333.764 173.058C322.752 187.485 309.67 199.282 294.88 208.12C282.938 215.238 269.961 220.454 256.415 223.58C243.908 226.486 233.159 227.177 225.765 227.177Z" fill="#371A45"/>
<path d="M6.00664 270.47C17.2656 283.729 33.6469 267.884 33.6469 267.884C33.6469 267.884 46.1281 302.547 72.3482 309.744C94.379 315.79 121.702 301.298 121.702 301.298C121.702 301.298 214.98 327.194 235.102 224.314C236.565 216.701 237.584 209.01 238.154 201.279C238.646 194.887 238.892 188.097 238.892 180.91C238.886 177.15 238.811 173.277 238.667 169.291L161.332 162.31L152.418 161.511L150.194 161.307C150.068 161.805 149.943 162.297 149.81 162.784C145.972 176.812 138.443 187.425 130.357 195.88C120.106 206.617 108.992 213.871 103.503 220.175C100.848 223.219 98.4508 226.479 96.3364 229.921C93.1493 235.098 91.7941 238.781 91.7941 238.781C88.3989 241.47 77.6124 249.246 68.7094 243.429C65.6242 241.409 63.5309 237.982 61.6916 234.248C58.4307 227.64 55.9507 220.072 50.0828 217.616C41.6139 214.072 31.8917 217.282 23.7977 223.227C18.7447 226.938 14.3279 231.721 11.2501 236.585C5.94022 244.976 -2.22313 260.789 6.00664 270.47Z" fill="white"/>
<g opacity="0.35">
<path opacity="0.35" d="M4.10533 267.589C4.61958 268.623 5.25808 269.59 6.00667 270.47C17.2656 283.729 33.6469 267.884 33.6469 267.884C33.6469 267.884 46.1281 302.547 72.3483 309.744C94.379 315.79 121.702 301.298 121.702 301.298C121.702 301.298 212.479 326.5 234.247 228.405C212.318 297.148 151.945 293.285 131.783 289.91C127.442 289.18 122.985 289.688 118.919 291.375C109.581 295.252 91.3542 301.248 75.776 296.973C49.5558 289.777 43.0813 255.86 31.7707 252.992C29.1268 252.322 23.873 280.83 4.10533 267.589Z" fill="#371A45"/>
</g>
<path d="M84.0736 313.718C79.6273 313.718 75.4792 313.196 71.6898 312.157C65.3422 310.414 59.2529 307.014 53.5932 302.049C49.1306 298.135 44.9235 293.243 41.0883 287.509C37.8173 282.597 34.9849 277.407 32.6239 271.998C29.264 274.542 23.2441 278.258 16.7548 278.258C16.4832 278.258 16.2101 278.258 15.937 278.238C11.3608 278.014 7.37506 275.944 4.10529 272.088C-0.0619991 267.181 -1.06138 260.554 1.15291 252.388C2.55972 247.177 5.25229 241.411 9.15535 235.249C13.5987 228.236 20.2179 221.959 27.3125 218.009C31.251 215.821 35.1836 214.437 38.9995 213.895C43.3012 213.285 47.3592 213.761 51.06 215.311C56.7995 217.715 59.6028 223.797 62.313 229.679C64.4461 234.305 66.6501 239.088 70.0941 241.344C73.2044 243.378 77.0322 243.584 81.4681 241.956C84.1179 240.983 86.9655 239.355 89.7348 237.23C90.7017 234.89 94.2741 226.999 101.633 218.548C104.345 215.434 108.223 212.215 112.704 208.488C125.022 198.262 141.892 184.257 147.776 160.711C147.849 160.386 147.986 160.078 148.18 159.807C148.374 159.536 148.619 159.306 148.903 159.132C149.187 158.957 149.502 158.84 149.832 158.789C150.161 158.738 150.497 158.754 150.82 158.835C151.143 158.915 151.447 159.06 151.713 159.26C151.98 159.46 152.204 159.711 152.372 159.999C152.54 160.287 152.649 160.605 152.692 160.936C152.735 161.266 152.712 161.602 152.624 161.923C146.344 187.058 128.746 201.667 115.896 212.334C111.574 215.922 107.84 219.022 105.394 221.832C97.4228 230.975 94.1752 239.569 94.1412 239.655L93.8962 240.309L93.3485 240.745C90.0049 243.392 86.4886 245.433 83.1805 246.651C77.2654 248.822 71.7917 248.435 67.3513 245.532C62.7042 242.495 60.1947 237.049 57.7664 231.782C55.3498 226.537 53.0662 221.584 49.1218 219.932C37.2325 214.952 21.3029 225.395 13.3625 237.933C9.72959 243.663 7.23335 248.962 5.96382 253.688C4.21453 260.169 4.86848 265.269 7.90796 268.847C10.2832 271.642 12.9816 273.079 16.1599 273.24C23.9601 273.633 31.8326 266.152 31.9109 266.081L34.6905 263.417L35.9984 267.039C36.028 267.124 39.1294 275.614 45.3088 284.824C50.9006 293.16 60.2464 303.832 73.0154 307.336C83.7916 310.289 96.0721 307.926 104.476 305.416C113.736 302.656 120.468 299.117 120.534 299.081L121.42 298.616L122.379 298.882C122.489 298.911 133.637 301.938 148.722 301.679C162.516 301.438 182.547 298.312 199.651 284.78C225.956 263.97 238.249 225.146 236.186 169.386C236.175 168.732 236.421 168.099 236.871 167.624C237.321 167.15 237.939 166.87 238.593 166.846C239.247 166.822 239.884 167.055 240.367 167.495C240.851 167.936 241.143 168.548 241.18 169.201C242.319 199.979 239.075 226.102 231.538 246.845C225.074 264.634 215.375 278.727 202.712 288.731C194.643 295.106 185.317 299.859 174.992 302.858C166.768 305.248 157.898 306.532 148.629 306.68C148.021 306.689 147.417 306.693 146.822 306.693C134.367 306.693 124.957 304.666 122.001 303.945C116.849 306.454 111.501 308.538 106.01 310.177C100.285 311.89 94.7598 312.996 89.5857 313.461C87.7001 313.632 85.8627 313.718 84.0736 313.718Z" fill="#371A45"/>
<path d="M296.808 133.046C302.998 123.352 316.167 121.017 318.754 121.513C320.725 121.891 325.397 128.199 320.588 132.009C315.778 135.819 311.775 135.729 311.843 137.638C311.911 139.547 315.173 146.34 309.924 153.007" fill="white"/>
<path d="M296.105 132.603C297.286 129.992 299.17 127.68 301.365 125.781C303.58 123.891 306.075 122.355 308.759 121.227C310.099 120.652 311.477 120.173 312.885 119.794C313.594 119.604 314.311 119.437 315.048 119.298C315.81 119.157 316.581 119.062 317.355 119.012L317.666 118.995C317.77 118.995 317.888 118.995 317.997 118.995C318.208 118.995 318.472 119.006 318.722 119.021C318.877 119.038 319.03 119.058 319.185 119.081C319.407 119.124 319.624 119.184 319.836 119.26C320.156 119.379 320.462 119.531 320.752 119.712C321.186 119.985 321.59 120.303 321.958 120.661C322.283 120.974 322.586 121.308 322.866 121.662C323.408 122.344 323.868 123.087 324.235 123.877C324.625 124.696 324.899 125.565 325.05 126.458C325.222 127.429 325.207 128.424 325.006 129.39C324.794 130.389 324.377 131.333 323.781 132.163C323.639 132.364 323.486 132.557 323.323 132.742C323.168 132.924 323.002 133.097 322.827 133.26C322.661 133.423 322.486 133.576 322.303 133.721L322.17 133.831C322.127 133.867 322.079 133.908 322.043 133.932L321.816 134.1C321.211 134.543 320.582 134.968 319.938 135.358C318.668 136.107 317.339 136.754 315.966 137.291C315.318 137.548 314.667 137.789 314.18 138.004C313.94 138.106 313.749 138.217 313.712 138.232C313.712 138.232 313.734 138.199 313.79 138.091C313.861 137.964 313.9 137.822 313.904 137.677C313.907 137.65 313.907 137.622 313.904 137.595V137.576V137.597C313.904 137.597 313.904 137.597 313.904 137.614V137.682C313.911 137.778 313.929 137.916 313.952 138.062C314.001 138.357 314.064 138.685 314.128 139.026C314.253 139.708 314.374 140.43 314.463 141.161C314.657 142.652 314.657 144.161 314.463 145.652C314.074 148.633 312.713 151.402 310.59 153.53C310.446 153.674 310.255 153.76 310.052 153.774C309.849 153.787 309.648 153.727 309.486 153.603C309.325 153.479 309.214 153.301 309.174 153.101C309.134 152.902 309.168 152.695 309.27 152.518L309.282 152.498C309.938 151.414 310.453 150.25 310.812 149.035C310.982 148.446 311.108 147.846 311.189 147.239C311.265 146.638 311.302 146.032 311.298 145.426C311.289 144.818 311.244 144.212 311.164 143.61C311.083 143.004 310.957 142.402 310.817 141.793C310.677 141.185 310.499 140.578 310.308 139.939C310.213 139.617 310.116 139.286 310.012 138.917C309.964 138.729 309.913 138.534 309.865 138.294L309.832 138.109C309.832 138.081 309.822 138.04 309.817 138.001L309.804 137.885L309.794 137.767C309.794 137.746 309.794 137.731 309.794 137.705V137.62C309.794 137.508 309.794 137.396 309.801 137.284C309.842 136.799 309.99 136.33 310.235 135.91C310.438 135.574 310.691 135.27 310.985 135.01C311.372 134.681 311.795 134.397 312.244 134.161C312.974 133.768 313.585 133.496 314.177 133.202C314.769 132.908 315.33 132.637 315.87 132.334C316.41 132.031 316.928 131.709 317.435 131.374C317.941 131.039 318.428 130.679 318.899 130.296L319.075 130.149C319.099 130.13 319.122 130.11 319.144 130.088L319.205 130.03C319.286 129.961 319.363 129.887 319.435 129.807C319.57 129.668 319.693 129.516 319.801 129.354C319.993 129.071 320.123 128.75 320.183 128.414C320.202 128.331 320.202 128.241 320.219 128.157C320.235 128.072 320.228 127.976 320.219 127.882C320.21 127.787 320.219 127.693 320.201 127.587L320.188 127.439L320.16 127.291C320.025 126.467 319.554 125.519 318.957 124.759C318.816 124.578 318.664 124.407 318.5 124.246C318.384 124.126 318.257 124.018 318.12 123.923C318.081 123.895 318.069 123.895 318.127 123.914H318.136L318.158 123.923L318.207 123.938C318.223 123.943 318.24 123.946 318.257 123.948H318.289C318.275 123.948 318.26 123.945 318.247 123.939C318.158 123.939 318.083 123.92 317.951 123.92C317.891 123.92 317.838 123.92 317.771 123.92H317.573C316.99 123.94 316.408 123.994 315.83 124.081C315.225 124.159 314.611 124.267 313.998 124.399C313.385 124.53 312.771 124.678 312.159 124.834C311.546 124.991 310.941 125.18 310.339 125.379C307.914 126.155 305.59 127.215 303.415 128.538C301.211 129.886 299.221 131.555 297.51 133.492L297.503 133.501C297.37 133.651 297.186 133.749 296.987 133.777C296.787 133.804 296.585 133.759 296.416 133.649C296.247 133.539 296.122 133.373 296.066 133.179C296.009 132.986 296.024 132.779 296.107 132.595L296.105 132.603Z" fill="#371A45"/>
<path d="M234.632 238.97L206.909 275.487L178.915 278.216L164.114 279.659C164.114 279.659 152.708 275.284 149.953 274.181C146.214 272.692 147.729 268.16 149.47 265.649C152.237 261.624 154.665 257.376 156.729 252.949C159.847 246.325 161.887 240.163 163.776 235.125C164.526 233.112 165.923 231.406 167.748 230.274C169.574 229.142 171.723 228.65 173.859 228.874C200.079 231.693 225.878 231.571 225.878 231.571L234.632 238.97Z" fill="white"/>
<path d="M164.119 281.874C163.848 281.874 163.579 281.824 163.326 281.726C162.86 281.548 151.874 277.33 149.138 276.239C147.391 275.541 146.199 274.286 145.694 272.607C144.859 269.838 146.159 266.543 147.653 264.385C154.225 254.891 157.663 245.436 160.427 237.837C160.87 236.618 161.289 235.466 161.707 234.353C162.627 231.877 164.346 229.778 166.591 228.387C168.836 226.997 171.481 226.394 174.107 226.674C199.896 229.444 225.626 229.36 225.881 229.359C226.408 229.356 226.918 229.541 227.321 229.881L236.068 237.264C236.502 237.631 236.778 238.149 236.841 238.713C236.903 239.277 236.747 239.844 236.404 240.296L208.681 276.816C208.496 277.06 208.263 277.262 207.997 277.411C207.73 277.56 207.436 277.652 207.132 277.682L164.342 281.852C164.268 281.863 164.193 281.871 164.119 281.874ZM172.828 231.04C171.307 231.046 169.824 231.515 168.577 232.386C167.329 233.256 166.377 234.487 165.847 235.913C165.438 237.006 165.022 238.149 164.582 239.358C161.732 247.195 158.184 256.95 151.288 266.913C150.219 268.457 149.634 270.359 149.928 271.334C150.006 271.592 150.167 271.887 150.774 272.13C153.158 273.082 162.21 276.56 164.418 277.409L205.727 273.383L231.591 239.308L225.069 233.797C220.446 233.787 197.064 233.605 173.621 231.086C173.36 231.057 173.097 231.042 172.834 231.04H172.828Z" fill="#371A45"/>
<g opacity="0.3">
<path opacity="0.3" d="M178.915 278.216L164.114 279.659C164.114 279.659 152.708 275.284 149.953 274.181C147.097 273.045 147.305 270.129 148.338 267.698C148.647 266.979 149.026 266.292 149.47 265.649C152.237 261.624 154.665 257.376 156.729 252.949C157.328 254.825 159.091 252.876 163.781 251.414C169.325 249.684 172.002 244.987 175.246 243.883C184.721 240.652 181.311 267.645 178.915 278.216Z" fill="#371A45"/>
</g>
<path d="M217.077 262.742C215.787 266.233 214.576 270.685 214.576 270.685C214.576 270.685 207.258 268.751 206.683 268.538C204.786 267.835 204.748 263.212 206.598 258.202C208.447 253.192 211.485 249.713 213.388 250.415C214.776 250.929 220.672 252.421 220.672 252.421C220.672 252.421 217.573 261.4 217.077 262.742Z" fill="white"/>
<path d="M222.096 263.207C223.946 258.205 223.398 253.392 220.871 252.457C218.345 251.522 214.797 254.819 212.947 259.822C211.098 264.824 211.646 269.637 214.172 270.572C216.699 271.507 220.246 268.209 222.096 263.207Z" fill="white"/>
<path d="M233.963 240.96C231.972 244.528 228.828 250.204 225.35 256.047C220.373 264.405 214.721 273.094 210.833 276.369C204.062 282.067 179.666 281.734 164.114 279.659C160.034 279.114 157.688 274.829 159.981 271.401C163.725 265.79 166.946 260.223 169.556 255.343C172.028 250.724 173.955 246.725 175.255 243.886C175.838 242.62 176.817 241.578 178.043 240.917C179.27 240.256 180.679 240.012 182.056 240.222C206.661 243.942 224.231 240.458 231.894 238.317C232.24 238.222 232.606 238.231 232.947 238.344C233.287 238.456 233.587 238.667 233.809 238.949C234.03 239.232 234.163 239.574 234.19 239.931C234.218 240.289 234.139 240.647 233.963 240.96Z" fill="white"/>
<g opacity="0.3">
<path opacity="0.3" d="M218.933 266.282C216.528 269.87 214.209 273.001 212.198 275.074C211.768 275.531 211.312 275.963 210.833 276.369C204.062 282.067 179.666 281.734 164.114 279.659C160.034 279.114 157.688 274.829 159.981 271.401C163.725 265.79 166.946 260.223 169.556 255.343C170.347 259.754 173.869 269.268 189.472 272.58C193.511 273.433 197.739 272.906 201.914 271.506C201.313 269.615 201.669 266.223 202.993 262.646C204.839 257.644 207.882 254.157 209.783 254.859C210.945 255.29 215.245 256.397 216.636 256.756C216.855 256.777 217.07 256.827 217.276 256.904C218.615 257.397 219.398 258.992 219.565 261.123C219.668 262.633 219.47 264.423 218.933 266.282Z" fill="#371A45"/>
</g>
<g opacity="0.3">
<path opacity="0.3" d="M218.933 266.282C219.47 264.423 219.671 262.633 219.554 261.114C221.63 259.432 223.583 257.709 225.35 256.049C223.271 259.541 221.072 263.094 218.933 266.282Z" fill="#371A45"/>
</g>
<path d="M185.327 283.25C178.136 283.244 170.953 282.778 163.822 281.855C161.002 281.478 158.645 279.765 157.519 277.277C156.46 274.935 156.686 272.348 158.137 270.176C165.418 259.274 170.725 248.45 173.24 242.969L175.254 243.893L173.24 242.969C174.029 241.269 175.347 239.87 176.997 238.981C178.646 238.092 180.539 237.761 182.393 238.037C206.267 241.643 223.283 238.427 231.302 236.188C232.069 235.974 232.882 235.992 233.64 236.239C234.397 236.487 235.064 236.953 235.556 237.579C236.048 238.206 236.345 238.964 236.407 239.758C236.469 240.552 236.295 241.347 235.906 242.043L235.422 242.91C230.082 252.489 218.971 272.422 212.265 278.066C208.791 280.989 201.59 282.698 190.86 283.145C189.086 283.221 187.231 283.25 185.327 283.25ZM181.099 242.366C180.293 242.365 179.503 242.595 178.823 243.028C178.143 243.462 177.601 244.08 177.261 244.812C174.691 250.414 169.266 261.476 161.814 272.632C161.527 273.036 161.351 273.51 161.304 274.004C161.258 274.498 161.343 274.996 161.55 275.448C162.042 276.537 163.109 277.29 164.404 277.463C181.706 279.773 203.83 279.361 209.402 274.672C215.487 269.55 226.739 249.367 231.545 240.748L231.573 240.698C222.879 243.01 205.551 246.014 181.722 242.413C181.516 242.382 181.308 242.366 181.099 242.366Z" fill="#371A45"/>
<path d="M217.077 262.742C215.787 266.233 214.576 270.685 214.576 270.685C214.576 270.685 207.258 268.751 206.683 268.538C204.786 267.835 204.748 263.212 206.598 258.202C208.447 253.192 211.485 249.713 213.388 250.415C214.776 250.929 220.672 252.421 220.672 252.421C220.672 252.421 217.573 261.4 217.077 262.742Z" fill="#22A7F0"/>
<g opacity="0.8">
<path opacity="0.8" d="M220.666 252.43C220.666 252.43 217.573 261.397 217.08 262.742C215.785 266.232 214.579 270.688 214.579 270.688C214.579 270.688 214.432 270.647 214.185 270.585C214.628 269.132 215.188 267.385 215.762 265.838C216.261 264.492 219.355 255.52 219.355 255.52C219.355 255.52 213.45 254.029 212.067 253.518C210.529 252.945 208.229 255.142 206.429 258.667C206.487 258.519 206.537 258.372 206.595 258.211C208.447 253.208 211.484 249.721 213.385 250.423C214.773 250.934 220.666 252.43 220.666 252.43Z" fill="white"/>
</g>
<g opacity="0.3">
<path opacity="0.3" d="M216.494 264.416C215.442 267.508 214.575 270.688 214.575 270.688C214.575 270.688 207.255 268.748 206.679 268.537C204.783 267.835 204.744 263.221 206.59 258.211C207.156 256.653 207.89 255.162 208.781 253.764C207.497 258.113 207.715 261.859 209.401 262.477C209.863 262.649 214.574 263.905 216.494 264.416Z" fill="#371A45"/>
</g>
<path d="M214.578 272.533C214.418 272.532 214.26 272.511 214.106 272.471C211.879 271.88 206.636 270.489 206.044 270.269C202.501 268.956 202.944 262.765 204.863 257.57C205.834 254.946 207.154 252.601 208.579 250.965C211.037 248.146 213.043 248.332 214.02 248.692C215.084 249.086 219.504 250.232 221.117 250.641C221.365 250.704 221.597 250.817 221.799 250.974C222 251.131 222.167 251.328 222.289 251.553C222.41 251.777 222.483 252.025 222.504 252.28C222.525 252.534 222.493 252.791 222.409 253.032C222.282 253.4 219.309 262.04 218.806 263.385C217.558 266.755 216.367 271.128 216.355 271.171C216.249 271.561 216.017 271.906 215.696 272.152C215.375 272.398 214.982 272.532 214.578 272.533ZM207.405 266.83C208.028 267.02 210.601 267.716 213.294 268.433C213.772 266.791 214.537 264.281 215.344 262.099C215.688 261.17 217.333 256.419 218.267 253.714C216.432 253.237 213.852 252.545 212.83 252.183C212.132 252.345 209.977 254.38 208.325 258.847C206.683 263.295 206.987 266.239 207.405 266.83Z" fill="#371A45"/>
<path d="M222.096 263.207C223.946 258.205 223.398 253.392 220.871 252.457C218.345 251.522 214.797 254.819 212.947 259.822C211.098 264.824 211.646 269.637 214.172 270.572C216.699 271.507 220.246 268.209 222.096 263.207Z" fill="#22A7F0"/>
<g opacity="0.8">
<path opacity="0.8" d="M222.095 263.212C221.972 263.54 221.845 263.856 221.709 264.164C222.564 260.178 221.823 256.759 219.74 255.985C217.378 255.111 214.12 257.939 212.195 262.401C212.386 261.528 212.637 260.668 212.947 259.829C214.798 254.828 218.345 251.526 220.871 252.464C223.397 253.401 223.946 258.209 222.095 263.212Z" fill="white"/>
</g>
<g opacity="0.3">
<path opacity="0.3" d="M221.929 263.637C220.043 268.402 216.627 271.483 214.171 270.578C211.645 269.644 211.1 264.832 212.947 259.829C213.915 257.214 215.343 255.065 216.848 253.742C216.794 253.88 216.739 254.018 216.69 254.157C214.844 259.16 215.388 263.972 217.919 264.907C219.119 265.353 220.555 264.836 221.929 263.637Z" fill="#371A45"/>
</g>
<path d="M215.081 272.589C214.551 272.59 214.025 272.496 213.528 272.311C209.934 270.982 208.939 265.34 211.214 259.19C212.206 256.504 213.692 254.153 215.396 252.568C217.428 250.678 219.6 250.027 221.507 250.733C225.102 252.062 226.097 257.704 223.823 263.854C222.83 266.54 221.345 268.891 219.64 270.476C218.146 271.867 216.574 272.589 215.081 272.589ZM219.962 254.151C219.438 254.151 218.671 254.563 217.908 255.272C216.637 256.453 215.459 258.348 214.674 260.47C213.889 262.592 213.552 264.798 213.748 266.524C213.896 267.751 214.305 268.665 214.808 268.851C215.312 269.037 216.222 268.615 217.127 267.775C218.398 266.593 219.576 264.699 220.362 262.577C221.147 260.455 221.484 258.249 221.287 256.523C221.148 255.296 220.732 254.382 220.227 254.196C220.144 254.165 220.055 254.15 219.966 254.15L219.962 254.151Z" fill="#371A45"/>
<path d="M182.229 282.853C181.905 282.852 181.588 282.767 181.308 282.605C181.028 282.443 180.795 282.21 180.633 281.93C180.472 281.65 180.386 281.333 180.385 281.009C180.385 280.686 180.469 280.368 180.63 280.087L189.396 264.81L185.199 261.053C184.91 260.795 184.71 260.453 184.627 260.074C184.544 259.696 184.582 259.301 184.735 258.946L192.559 240.823C192.655 240.6 192.794 240.398 192.968 240.229C193.142 240.06 193.348 239.926 193.573 239.837C193.799 239.747 194.04 239.703 194.283 239.706C194.526 239.709 194.765 239.761 194.988 239.857C195.211 239.953 195.413 240.092 195.582 240.266C195.751 240.44 195.885 240.646 195.974 240.871C196.064 241.097 196.108 241.338 196.105 241.581C196.102 241.824 196.05 242.063 195.954 242.286L188.657 259.19L192.977 263.057C193.292 263.339 193.501 263.721 193.568 264.139C193.635 264.557 193.557 264.985 193.346 265.352L183.83 281.926C183.669 282.208 183.436 282.442 183.154 282.605C182.873 282.768 182.554 282.853 182.229 282.853Z" fill="#371A45"/>
<path d="M66.0286 309.595C65.7352 309.596 65.4447 309.538 65.174 309.425C64.9033 309.312 64.6578 309.146 64.452 308.936C59.6515 304.074 56.9131 297.504 56.3138 289.411C55.8488 283.122 56.674 275.895 58.7672 267.93C62.2924 254.515 68.1351 243.722 68.3817 243.27C68.663 242.754 69.1376 242.371 69.7011 242.206C70.2646 242.04 70.8708 242.105 71.3864 242.386C71.9021 242.668 72.2848 243.142 72.4505 243.706C72.6162 244.27 72.5513 244.876 72.27 245.392C72.1961 245.528 66.405 256.247 63.029 269.136C60.0028 280.694 58.3391 296.442 67.6052 305.825C67.9121 306.136 68.1202 306.531 68.2034 306.959C68.2866 307.388 68.2412 307.832 68.0728 308.235C67.9045 308.638 67.6207 308.983 67.2572 309.225C66.8938 309.467 66.4668 309.596 66.0301 309.596L66.0286 309.595Z" fill="#371A45"/>
<path d="M286.154 212.315H286.007C273.791 211.467 265.161 203.678 261.048 189.789C258.05 179.662 258.517 169.935 258.539 169.526C258.569 168.939 258.832 168.388 259.269 167.994C259.706 167.6 260.281 167.396 260.868 167.426C261.456 167.457 262.007 167.72 262.4 168.157C262.794 168.594 262.998 169.169 262.968 169.757C262.968 169.916 262.534 179.256 265.329 188.628C268.931 200.697 275.993 207.179 286.318 207.895C286.905 207.915 287.461 208.167 287.862 208.596C288.264 209.026 288.478 209.597 288.459 210.184C288.439 210.772 288.187 211.327 287.758 211.729C287.329 212.13 286.758 212.345 286.17 212.325L286.154 212.315Z" fill="#371A45"/>
<path d="M345.992 150.501C345.634 150.763 345.261 151 344.883 151.24C344.697 151.359 344.499 151.458 344.303 151.561C344.107 151.665 343.906 151.762 343.712 151.857C343.318 152.062 342.9 152.213 342.49 152.382C342.08 152.552 341.658 152.678 341.238 152.814C339.552 153.338 337.843 153.579 336.219 153.778C334.595 153.977 333.038 154.132 331.482 154.389C329.926 154.646 328.37 155.001 326.758 155.423C326.689 155.441 326.615 155.436 326.548 155.407C326.482 155.379 326.427 155.329 326.392 155.267C326.356 155.204 326.343 155.131 326.353 155.059C326.364 154.988 326.398 154.922 326.45 154.872C327.7 153.697 329.102 152.695 330.619 151.894C332.138 151.076 333.747 150.445 335.288 149.884C336.829 149.323 338.289 148.79 339.685 148.26C340.031 148.112 340.388 148.003 340.719 147.852L341.235 147.648L341.495 147.551C341.581 147.514 341.665 147.476 341.751 147.44C342.092 147.292 342.441 147.17 342.784 147.027C343.126 146.883 343.476 146.745 343.841 146.629L344.002 146.579C344.505 146.422 345.048 146.448 345.535 146.653C346.021 146.858 346.418 147.229 346.656 147.7C346.895 148.171 346.958 148.712 346.836 149.225C346.713 149.738 346.412 150.192 345.987 150.504L345.992 150.501Z" fill="#371A45"/>
<path d="M330.954 135.435L330.797 135.695C330.751 135.767 330.707 135.843 330.658 135.913C330.567 136.049 330.471 136.188 330.375 136.317C330.183 136.579 329.979 136.822 329.773 137.062C329.361 137.532 328.92 137.975 328.454 138.391C327.529 139.208 326.542 139.952 325.502 140.617C324.476 141.299 323.415 141.923 322.325 142.504C321.775 142.787 321.222 143.065 320.656 143.323C320.372 143.452 320.086 143.576 319.794 143.694C319.501 143.812 319.212 143.929 318.908 144.035C318.866 144.05 318.822 144.056 318.778 144.054C318.734 144.052 318.691 144.041 318.652 144.022C318.612 144.003 318.576 143.976 318.547 143.944C318.517 143.911 318.494 143.873 318.48 143.831C318.463 143.785 318.457 143.736 318.461 143.687C318.466 143.638 318.481 143.591 318.506 143.549C318.667 143.276 318.835 143.01 319.008 142.753C319.181 142.496 319.354 142.236 319.531 141.984C319.879 141.476 320.239 140.984 320.603 140.498C321.324 139.522 322.067 138.579 322.808 137.656C323.549 136.733 324.284 135.813 325.068 134.968C325.458 134.545 325.853 134.133 326.261 133.743C326.464 133.548 326.668 133.356 326.876 133.174C326.981 133.083 327.08 132.994 327.188 132.908C327.237 132.866 327.288 132.826 327.335 132.784L327.406 132.731L327.443 132.706C327.45 132.704 327.457 132.704 327.464 132.706L328.524 132.372C328.929 132.245 329.363 132.243 329.769 132.368C330.174 132.493 330.532 132.739 330.795 133.073C331.058 133.406 331.212 133.812 331.239 134.236C331.265 134.66 331.162 135.082 330.943 135.445L330.954 135.435Z" fill="#371A45"/>
<path d="M93.2866 234.196C103.644 267.815 157.404 273.24 162.536 255.963C164.272 250.117 159.546 246.452 159.546 246.452C159.546 246.452 114.015 246.638 102.073 218.033C102.073 218.038 89.6964 222.548 93.2866 234.196Z" fill="white"/>
<g opacity="0.3">
<path opacity="0.3" d="M93.2866 234.196C103.646 267.815 157.407 273.241 162.538 255.963C163.133 254.043 163.029 251.973 162.243 250.123C151.648 267.273 98.8326 255.031 96.0899 223.712C96.047 223.233 95.8286 222.802 95.7356 222.366C93.3766 224.961 91.6317 228.818 93.2866 234.196Z" fill="#371A45"/>
</g>
<path d="M141.999 268.047C132.006 268.047 121.185 265.169 112.253 260.135C101.491 254.066 94.1073 245.354 90.8996 234.939C88.6735 227.714 91.676 222.807 94.59 219.963C96.5045 218.125 98.7555 216.675 101.22 215.691C101.823 215.47 102.489 215.491 103.078 215.749C103.666 216.007 104.133 216.482 104.38 217.076C109.009 228.165 119.595 236.058 135.841 240.535C148.25 243.954 159.426 243.963 159.538 243.958C160.093 243.959 160.632 244.143 161.07 244.482C161.318 244.674 167.123 249.28 164.925 256.681C162.829 263.736 154.354 267.985 142.255 268.051L141.999 268.047ZM100.879 221.414C99.8247 222.034 98.851 222.781 97.9794 223.638C95.2351 226.38 94.4823 229.595 95.675 233.467C101.605 252.718 123.913 263.047 141.996 263.047H142.236C151.866 262.998 158.728 260.014 160.14 255.257C161.056 252.179 159.448 249.916 158.545 248.945C155.43 248.871 145.616 248.398 134.63 245.386C126.892 243.266 120.186 240.317 114.702 236.621C108.525 232.465 103.887 227.359 100.879 221.414Z" fill="#371A45"/>
<path d="M9.64989 206.481C9.64989 206.481 9.0225 210.703 11.4213 213.911C12.6259 215.513 14.5686 217.215 16.9068 218.892C19.1268 220.46 21.4285 221.908 23.8021 223.232C29.1888 226.263 34.8736 228.824 38.229 230.06C45.2837 232.662 53.3186 233.988 61.7004 234.251C73.1513 234.608 85.2369 232.984 96.3452 229.931C106.785 227.062 116.358 222.928 123.705 217.99L128.929 210.26L136.07 199.697L161.34 162.316L167.081 153.825C166.83 153.973 161.261 157.146 152.427 161.517C151.583 161.933 150.716 162.359 149.819 162.794C139.781 167.667 126.271 173.68 111.782 178.611C89.2211 186.289 64.272 191.358 46.3023 185.403C25.3743 178.463 15.4912 173.385 10.2536 178.921C4.93936 184.532 11.3401 192.026 11.3401 192.026C11.3401 192.026 6.71817 195.31 6.69012 200.066C6.65912 203.836 9.64989 206.481 9.64989 206.481Z" fill="white"/>
<g opacity="0.35">
<path opacity="0.35" d="M38.2024 201.067C38.2024 201.067 38.3987 202.269 39.3494 204.136C38.7412 202.284 38.2024 201.067 38.2024 201.067Z" fill="#371A45"/>
</g>
<g opacity="0.35">
<path opacity="0.35" d="M16.9098 218.892C19.1298 220.46 21.4314 221.908 23.8051 223.232C29.1917 226.263 34.8765 228.824 38.2319 230.06C45.2866 232.662 53.3216 233.988 61.7034 234.251C73.1542 234.608 85.2398 232.984 96.3482 229.931C106.788 227.062 116.361 222.928 123.708 217.99C125.349 215.562 122.97 212.441 120.193 213.387C105.924 218.26 82.5576 225.11 70.4675 222.505C49.079 217.889 41.7748 208.869 39.3538 204.136C41.1252 209.471 43.4872 220.084 35.3164 221.972C32.181 222.697 22.6507 221.312 16.9098 218.892Z" fill="#371A45"/>
</g>
<path d="M167.499 154.541C166.761 155.181 166.023 155.774 165.263 156.352C164.503 156.929 163.732 157.484 162.951 158.025C161.391 159.107 159.8 160.136 158.179 161.109C154.931 163.064 151.586 164.801 148.208 166.496C141.449 169.876 134.45 172.751 127.412 175.504C123.887 176.871 120.357 178.227 116.795 179.504C113.233 180.781 109.643 181.992 106.019 183.116C98.7751 185.354 91.4044 187.267 83.8951 188.622C80.1396 189.298 76.3473 189.833 72.5195 190.153C68.6741 190.493 64.811 190.588 60.9535 190.438L59.4995 190.351L58.7717 190.307C58.5296 190.289 58.2875 190.264 58.044 190.242L56.5899 190.106C56.1042 190.056 55.62 189.985 55.1358 189.925C54.166 189.814 53.1991 189.629 52.2337 189.473C51.9916 189.436 51.7495 189.386 51.5103 189.334L50.787 189.186L50.0651 189.039C49.9456 189.013 49.8245 188.99 49.7049 188.962L49.3462 188.87L47.9114 188.503C47.7918 188.47 47.6722 188.444 47.5526 188.408L47.1984 188.3L46.4868 188.083C45.5155 187.797 44.6475 187.493 43.7485 187.197C41.9623 186.595 40.1805 185.985 38.4032 185.369C34.85 184.141 31.3175 182.877 27.8012 181.714C26.0445 181.137 24.2908 180.583 22.5548 180.12C22.1208 180.004 21.6868 179.889 21.2572 179.79C20.8276 179.691 20.3981 179.597 19.9714 179.505C19.1448 179.335 18.3095 179.21 17.4693 179.13C16.71 179.058 15.9453 179.064 15.1871 179.147C14.5435 179.215 13.9173 179.398 13.3374 179.686C12.7862 179.975 12.296 180.368 11.8937 180.843C11.4762 181.313 11.1476 181.854 10.9239 182.441C10.7175 183.033 10.6239 183.659 10.6478 184.285C10.6785 184.988 10.8056 185.684 11.0257 186.353C11.2679 187.089 11.5798 187.8 11.9572 188.477C12.1506 188.826 12.3587 189.169 12.5816 189.502C12.6909 189.669 12.806 189.832 12.9211 189.99C12.9787 190.068 13.0363 190.146 13.0939 190.218L13.2415 190.397L14.8742 192.457L12.7868 194.061L12.6731 194.148L12.5167 194.275C12.4089 194.363 12.3011 194.455 12.1934 194.552C11.9793 194.744 11.7697 194.948 11.569 195.158C11.1707 195.568 10.8059 196.009 10.478 196.478C9.83886 197.395 9.40338 198.364 9.25428 199.301C9.23509 199.418 9.21738 199.535 9.21 199.651C9.19679 199.767 9.1894 199.884 9.18786 200.001C9.18266 200.059 9.18266 200.116 9.18786 200.174L9.19524 200.345V200.517C9.19524 200.574 9.21295 200.632 9.22033 200.689C9.23952 200.804 9.24248 200.92 9.272 201.035C9.30152 201.15 9.32514 201.267 9.35024 201.383C9.41718 201.621 9.49751 201.855 9.59086 202.083C9.78999 202.567 10.0409 203.027 10.3393 203.457L10.453 203.623L10.5755 203.784C10.6552 203.894 10.7438 203.996 10.8279 204.1C10.912 204.205 11.0021 204.304 11.0892 204.396C11.1335 204.443 11.1763 204.487 11.2176 204.527L11.2752 204.585C11.2885 204.598 11.318 204.625 11.2973 204.607L12.1151 206.847V206.882C12.1151 206.905 12.1151 206.931 12.1151 206.964C12.1151 207.023 12.1033 207.08 12.1004 207.145C12.0915 207.271 12.0871 207.402 12.0827 207.535C12.0782 207.668 12.0827 207.801 12.0827 207.935L12.0974 208.337C12.1273 208.864 12.2018 209.389 12.3203 209.904C12.3705 210.159 12.4532 210.397 12.5226 210.642C12.6018 210.874 12.693 211.103 12.7957 211.326C12.8937 211.542 13.003 211.753 13.1234 211.958C13.1824 212.059 13.2548 212.15 13.3168 212.246L13.4127 212.393C13.4437 212.442 13.4939 212.497 13.5338 212.541C14.2673 213.445 15.0892 214.273 15.9872 215.014C16.9261 215.809 17.9387 216.568 18.9854 217.297C21.0845 218.755 23.3195 220.103 25.6002 221.362C27.8809 222.622 30.2236 223.817 32.5929 224.931C33.7739 225.487 34.9725 226.024 36.1682 226.535C36.7676 226.789 37.3669 227.037 37.9648 227.273C38.5626 227.51 39.1457 227.734 39.7613 227.936C40.3769 228.139 40.9673 228.357 41.577 228.554L43.4223 229.097L43.8828 229.233L44.3508 229.35L45.2882 229.583L46.2241 229.818C46.5355 229.894 46.8544 229.952 47.1688 230.02C52.21 231.119 57.4033 231.629 62.6113 231.767C63.9162 231.767 65.2197 231.811 66.5247 231.767L67.5034 231.749C67.8296 231.749 68.1559 231.74 68.4821 231.722L70.441 231.635C73.0495 231.488 75.6594 231.278 78.2648 230.946C83.4666 230.309 88.6222 229.34 93.6999 228.044C96.2346 227.384 98.7456 226.634 101.205 225.748L101.668 225.589L102.128 225.417L103.046 225.075C103.655 224.844 104.271 224.632 104.875 224.381C105.478 224.13 106.09 223.908 106.701 223.679C107.312 223.45 107.907 223.193 108.516 222.962C108.819 222.842 109.125 222.73 109.426 222.607L110.329 222.241L111.239 221.884L111.693 221.706L112.143 221.519C112.744 221.269 113.347 221.024 113.956 220.781C114.566 220.537 115.159 220.284 115.77 220.042C116.382 219.8 116.982 219.555 117.598 219.323C117.905 219.203 118.212 219.085 118.524 218.973C118.68 218.919 118.831 218.855 118.983 218.793L119.445 218.614C119.752 218.495 120.066 218.381 120.378 218.267C120.534 218.208 120.694 218.155 120.852 218.099C121.009 218.043 121.163 217.981 121.321 217.925C121.947 217.691 122.586 217.471 123.252 217.278L123.286 217.268C123.465 217.215 123.656 217.222 123.83 217.287C124.005 217.352 124.154 217.472 124.255 217.629C124.355 217.785 124.403 217.971 124.389 218.157C124.376 218.343 124.303 218.519 124.18 218.66C123.723 219.192 123.239 219.694 122.743 220.188C122.496 220.439 122.236 220.667 121.976 220.897C121.717 221.128 121.454 221.353 121.187 221.575C120.661 222.033 120.109 222.448 119.55 222.852C118.99 223.257 118.431 223.67 117.847 224.034C117.264 224.397 116.681 224.772 116.088 225.12C115.494 225.469 114.883 225.785 114.275 226.107L113.815 226.37C113.667 226.448 113.506 226.517 113.352 226.597L112.425 227.04L111.494 227.483C111.184 227.631 110.865 227.759 110.551 227.896C108.041 229.01 105.433 229.868 102.823 230.68L100.858 231.271C100.204 231.467 99.5427 231.64 98.8858 231.824L97.9012 232.103C97.572 232.195 97.2413 232.278 96.9121 232.368L94.9355 232.895C89.6487 234.246 84.2805 235.255 78.8642 235.916C76.1568 236.262 73.4333 236.48 70.7053 236.637L68.6578 236.727C68.3168 236.746 67.9743 236.75 67.6318 236.756L66.5985 236.774C65.2315 236.814 63.8616 236.774 62.4917 236.774C57.015 236.626 51.5192 236.095 46.106 234.916C45.7679 234.843 45.4284 234.781 45.0918 234.698L44.0821 234.445L43.0724 234.193L42.5675 234.067L42.0671 233.92L40.0669 233.329C39.4026 233.115 38.7457 232.886 38.0843 232.657C37.423 232.428 36.7558 232.186 36.1195 231.931C35.4833 231.675 34.8382 231.412 34.2005 231.144C32.9378 230.606 31.6905 230.046 30.4583 229.465C27.9901 228.304 25.5588 227.073 23.1659 225.744C20.773 224.415 18.4141 223.003 16.1201 221.41C14.9745 220.611 13.8438 219.766 12.7411 218.834C11.5773 217.869 10.5145 216.789 9.56871 215.609C9.50671 215.528 9.44471 215.462 9.38271 215.367L9.19671 215.097C9.07566 214.915 8.94724 214.737 8.83652 214.551C8.6159 214.18 8.41582 213.797 8.23719 213.405C8.0612 213.019 7.90502 212.625 7.76923 212.223C7.64819 211.826 7.52123 211.427 7.43857 211.027C7.25675 210.238 7.14218 209.435 7.09609 208.626L7.07395 208.027C7.07395 207.826 7.07395 207.627 7.07395 207.424C7.07395 207.222 7.08576 207.02 7.10052 206.811C7.10052 206.711 7.11676 206.602 7.12561 206.494C7.12561 206.442 7.13152 206.386 7.14333 206.326L7.15366 206.237L7.1699 206.115L7.99657 208.355C7.90947 208.278 7.87552 208.244 7.82681 208.197L7.6969 208.07C7.61128 207.985 7.53304 207.904 7.45776 207.823C7.30128 207.659 7.16252 207.497 7.0149 207.33C6.86728 207.163 6.73737 206.996 6.60895 206.822L6.41409 206.563L6.23104 206.287C5.7288 205.56 5.30615 204.782 4.97037 203.965C4.79765 203.542 4.64978 203.109 4.52751 202.669L4.37251 201.99C4.32232 201.763 4.30018 201.527 4.26623 201.295C4.25147 201.178 4.23227 201.061 4.22342 200.945L4.2057 200.589L4.19094 200.235C4.1843 200.116 4.1843 199.998 4.19094 199.88C4.19832 199.645 4.2057 199.411 4.23227 199.177C4.25885 198.944 4.28394 198.714 4.32085 198.483C4.47087 197.584 4.73323 196.708 5.10175 195.874C5.45156 195.08 5.87877 194.323 6.37718 193.613C6.85747 192.932 7.39054 192.289 7.97147 191.691C8.25785 191.395 8.55309 191.1 8.85719 190.831C9.00481 190.692 9.17014 190.557 9.33252 190.421L9.58643 190.217L9.72076 190.112L9.892 189.985L9.44767 193.647L9.28381 193.448L9.15095 193.277C9.06386 193.164 8.98119 193.055 8.9 192.944C8.73909 192.723 8.58409 192.501 8.435 192.278C8.13976 191.83 7.85977 191.371 7.59504 190.901C7.05896 189.938 6.61653 188.926 6.27385 187.879C5.90836 186.765 5.69921 185.605 5.65237 184.433C5.60984 183.177 5.80415 181.925 6.22514 180.741C6.65841 179.57 7.30342 178.489 8.12795 177.552C8.94692 176.597 9.9411 175.809 11.0567 175.229C12.1567 174.674 13.3461 174.317 14.5701 174.176C15.676 174.05 16.7919 174.038 17.9003 174.139C20.0172 174.331 21.9614 174.78 23.8509 175.281C25.7404 175.781 27.562 176.363 29.3689 176.957C32.9767 178.15 36.5063 179.412 40.0447 180.635C41.8162 181.248 43.5832 181.853 45.3457 182.448C46.2314 182.744 47.1305 183.054 47.9586 183.296L48.5934 183.489L48.9107 183.587C49.017 183.618 49.1248 183.643 49.2326 183.671L50.5227 184.002L50.846 184.084C50.9538 184.11 51.063 184.13 51.1723 184.154L51.8262 184.291L52.4817 184.43C52.6987 184.477 52.9245 184.523 53.1386 184.557C54.0243 184.705 54.8997 184.869 55.7957 184.969C56.2386 185.024 56.6814 185.09 57.1331 185.136L58.4794 185.261C58.7038 185.282 58.9223 185.306 59.1526 185.323L59.8301 185.363L61.1838 185.444C64.8272 185.585 68.4758 185.494 72.1076 185.173C75.7553 184.869 79.3986 184.355 83.0315 183.696C90.287 182.388 97.4701 180.527 104.557 178.334C108.1 177.236 111.622 176.054 115.122 174.79C118.621 173.534 122.1 172.215 125.54 170.792L128.116 169.715L130.679 168.608C132.384 167.859 134.086 167.106 135.78 166.334L145.953 161.71C149.348 160.178 152.726 158.601 156.164 157.133C157.882 156.4 159.615 155.691 161.363 155.005C162.238 154.665 163.116 154.329 164.004 154.007C164.891 153.685 165.785 153.37 166.684 153.082H166.696C166.882 153.022 167.083 153.028 167.266 153.099C167.448 153.171 167.6 153.302 167.696 153.473C167.792 153.643 167.827 153.841 167.793 154.034C167.76 154.227 167.662 154.402 167.514 154.531L167.499 154.541Z" fill="#371A45"/>
<path d="M287.937 140.308C230.304 259.553 61.9352 185.416 104.761 65.2676C160.862 -58.1932 334.829 18.6057 287.937 140.308Z" fill="white"/>
<path d="M287.937 140.308C230.304 259.553 61.9352 185.416 104.761 65.2676C160.862 -58.1932 334.829 18.6057 287.937 140.308Z" fill="white"/>
<g opacity="0.35">
<path opacity="0.35" d="M108.809 178.02C114.329 184.654 120.674 190.555 127.691 195.579C129.58 196.928 131.513 198.218 133.488 199.448C156.835 213.939 185.851 219.217 212.867 211.773C221.464 209.408 229.67 205.799 237.224 201.061C237.723 194.564 237.976 187.665 237.982 180.363C237.975 176.542 237.898 172.604 237.751 168.55L159.169 161.462L165.003 152.834C164.748 152.982 159.088 156.21 150.111 160.652L147.851 160.445C147.724 160.95 147.596 161.449 147.461 161.95C137.259 166.898 123.532 173.011 108.809 178.02Z" fill="#371A45"/>
</g>
<path d="M287.937 140.308C230.304 259.553 61.9352 185.416 104.761 65.2676C160.862 -58.1932 334.829 18.6057 287.937 140.308Z" fill="white"/>
<path d="M198.52 202.608C185.067 202.608 171.442 199.87 158.441 194.427C147.158 189.724 136.777 183.098 127.759 174.844C118.488 166.347 111.064 156.467 105.697 145.478C93.8032 121.129 92.8895 93.1838 103.056 64.6624L103.114 64.5221C116.281 35.54 136.918 15.3631 162.8 6.17244C174.431 2.03783 186.762 0.246658 199.453 0.84027C211.657 1.40878 223.689 4.15091 235.218 8.98988C246.676 13.7718 257.207 20.5247 266.335 28.9423C275.722 37.6132 283.184 47.6809 288.513 58.8665C300.357 83.7199 300.742 112.106 289.626 140.955L289.567 141.092C276.022 169.117 255.359 188.591 229.815 197.408C219.745 200.868 209.168 202.625 198.52 202.608ZM106.434 65.9515C84.5637 127.411 118.777 173.894 159.833 191.085C172.065 196.208 185.433 199.068 198.952 199.068C231.872 199.068 265.691 182.116 286.272 139.587C310.223 77.329 275.878 29.976 233.817 12.3286C192.165 -5.15048 134.549 4.17749 106.434 65.9515Z" fill="#371A45"/>
<g opacity="0.35">
<path opacity="0.35" d="M287.937 140.305C239.951 244.166 92.1278 204.087 98.1078 94.2808C107.691 128.834 119.948 129.192 140.021 145.467C201.961 199.217 287.428 148.32 292.537 76.3602C298.246 97.9104 296.359 120.407 287.937 140.305Z" fill="#371A45"/>
</g>
<path d="M198.52 203.334C184.973 203.334 171.249 200.577 158.161 195.096C146.799 190.362 136.346 183.692 127.266 175.381C117.927 166.817 110.45 156.87 105.041 145.798C93.0592 121.268 92.1351 93.1275 102.37 64.4186L102.405 64.3167L102.449 64.2207C115.703 35.054 136.486 14.7443 162.557 5.48422C174.276 1.32894 186.702 -0.485861 199.487 0.110704C211.776 0.685119 223.893 3.44645 235.506 8.3179C247.04 13.1341 257.641 19.9345 266.829 28.4106C276.286 37.145 283.805 47.288 289.171 58.5563C301.104 83.5958 301.495 112.181 290.307 141.22L290.27 141.319L290.224 141.414C276.591 169.618 255.784 189.22 230.053 198.102C219.905 201.586 209.248 203.354 198.52 203.334ZM107.117 66.2245C85.4303 127.22 119.378 173.354 160.121 190.41C201.819 207.869 256.778 198.827 285.606 139.293C309.354 77.5061 275.273 30.5148 233.535 12.9989C192.2 -4.34433 135.029 4.92309 107.117 66.2245Z" fill="#293856"/>
<path d="M198.52 203.334C184.973 203.334 171.249 200.577 158.161 195.096C146.799 190.362 136.346 183.692 127.266 175.381C117.927 166.817 110.45 156.87 105.041 145.798C93.0592 121.268 92.1351 93.1275 102.37 64.4186L102.405 64.3167L102.449 64.2207C115.703 35.054 136.486 14.7443 162.557 5.48422C174.276 1.32894 186.702 -0.485861 199.487 0.110704C211.776 0.685119 223.893 3.44645 235.506 8.3179C247.04 13.1341 257.641 19.9345 266.829 28.4106C276.286 37.145 283.805 47.288 289.171 58.5563C301.104 83.5958 301.495 112.181 290.307 141.22L290.27 141.319L290.224 141.414C276.591 169.618 255.784 189.22 230.053 198.102C219.905 201.586 209.248 203.354 198.52 203.334ZM107.117 66.2245C85.4303 127.22 119.378 173.354 160.121 190.41C201.819 207.869 256.778 198.827 285.606 139.293C309.354 77.5061 275.273 30.5148 233.535 12.9989C192.2 -4.34433 135.029 4.92309 107.117 66.2245Z" fill="#371A45"/>
<path d="M275.137 162.211C184.48 235.01 83.6751 131.478 149.152 53.5298C227.803 -29.3115 343.18 65.4596 275.137 162.211Z" fill="#371A45"/>
<path d="M291.795 90.223C307.234 194.188 159.761 224.322 130.053 131.591C185.779 180.706 271.177 144.584 291.795 90.223Z" fill="#21102B"/>
<path d="M208.204 199.502C198.526 199.482 188.914 197.907 179.735 194.837C169.406 191.414 159.738 186.251 151.147 179.57C142.414 172.822 134.953 164.571 129.112 155.206C123.04 145.462 118.91 134.635 116.951 123.322C114.839 111.181 115.193 98.5039 118.002 85.6453L118.017 85.5818C121.249 72.4249 127.372 60.1702 136.219 49.1618C144.562 38.778 155.296 29.7498 167.253 23.0532C179.242 16.3375 192.595 11.8957 205.864 10.2064C219.959 8.41377 233.711 9.61576 246.737 13.7725L246.943 13.839L247.135 13.9379C269.11 25.3509 285.534 45.4672 293.392 70.5835C300.814 94.3014 299.672 120.091 290.259 141.34L290.251 141.358C284.452 154.184 277.089 165.173 268.367 174.018C260.207 182.296 250.883 188.683 240.656 193.003C230.979 197.081 220.615 199.28 210.117 199.484C209.479 199.491 208.841 199.497 208.204 199.502ZM122.957 86.7631C111.748 138.136 143.836 177.589 181.333 190.016C213.965 200.831 260.855 194.033 285.618 139.273C302.915 100.215 290.705 42.4386 244.982 18.5465C220.903 10.927 193.486 14.1756 169.728 27.4847C145.996 40.7759 128.954 62.3793 122.957 86.7631Z" fill="#371A45"/>
<path d="M210.768 189.485C209.119 189.485 207.476 189.439 205.83 189.346C184.368 188.156 164.132 178.959 149.118 163.572C135.212 149.346 126.928 130.998 125.794 111.906C124.539 90.8196 131.945 70.0697 147.21 51.8996L147.312 51.7844C165.912 32.1952 187.874 21.017 210.826 19.4621C231.461 18.0638 251.732 24.5905 267.904 37.8434C284.452 51.4035 295.022 70.5836 297.666 91.8473C300.618 115.609 293.548 140.445 277.214 163.67L277.008 163.965L276.727 164.191C256.043 180.799 233.339 189.485 210.768 189.485ZM151.047 55.2265C118.906 93.5351 128.737 135.457 152.748 160.021C179.191 187.076 226.683 197.664 273.268 160.455C307.369 111.692 292.754 64.7686 264.684 41.7728C236.458 18.6426 190.383 13.8391 151.047 55.2265Z" fill="#371A45"/>
<path d="M88.6543 137.795C101.521 182.685 147.584 173.568 139.62 129.471C127.86 81.9229 78.6206 91.6658 88.6543 137.795Z" fill="white"/>
<g opacity="0.35">
<path opacity="0.35" d="M122.459 167.065C136.288 164.432 144.131 146.067 139.08 127.179C133.027 148.496 107.403 118.104 104.637 108.78C70.0793 122.615 97.166 172.444 122.459 167.065Z" fill="#371A45"/>
</g>
<path d="M118.311 169.872C112.762 169.872 107.163 167.878 102.126 164.044C94.9369 158.571 89.4307 149.736 86.2141 138.498L86.1728 138.338C83.7828 127.347 84.4766 117.473 88.1789 109.783C91.5963 102.686 97.3579 97.8751 104.401 96.2375C108.062 95.396 111.871 95.4431 115.511 96.3748C119.349 97.3302 123.002 99.1701 126.374 101.838C133.721 107.662 139.153 117.007 142.085 128.861L142.119 129.019C144.022 139.558 143.07 148.992 139.367 156.304C135.934 163.085 130.305 167.691 123.522 169.272C121.814 169.671 120.065 169.873 118.311 169.872ZM91.118 137.18C97.5011 159.354 111.785 166.798 122.369 164.332C127.666 163.097 132.093 159.434 134.837 154.016C138.027 147.716 138.823 139.416 137.135 130.008C134.478 119.294 129.661 110.933 123.221 105.827C117.718 101.466 111.444 99.8184 105.551 101.187C100.036 102.47 95.4905 106.307 92.7537 111.99C89.5562 118.625 88.9908 127.334 91.118 137.18Z" fill="#371A45"/>
<path d="M87.1973 140.588C97.662 176.958 132.286 170.712 125.85 135.041C116.395 96.0335 78.7756 102.866 87.1973 140.588Z" fill="white"/>
<path d="M110.549 167.556C106.084 167.556 101.544 165.81 97.4361 162.456C91.8 157.851 87.4157 150.532 84.7571 141.291L84.7187 141.144C82.7096 132.147 83.0772 124.093 85.7816 117.854C88.3251 111.984 92.7699 108.043 98.2997 106.756C104.107 105.403 110.492 107.243 115.815 111.803C121.606 116.764 125.93 124.593 128.317 134.444L128.348 134.592C129.889 143.13 129.27 150.742 126.559 156.603C123.991 162.149 119.671 165.883 114.392 167.116C113.132 167.41 111.843 167.557 110.549 167.556ZM89.6581 139.961C92.0318 148.168 95.8315 154.58 100.648 158.522C104.692 161.826 109.162 163.121 113.237 162.168C120.356 160.506 126.241 151.635 123.364 135.566C118.907 117.28 107.967 109.715 99.4512 111.701C95.5289 112.615 92.3285 115.517 90.4464 119.873C88.173 125.104 87.9029 132.049 89.6581 139.961Z" fill="#371A45"/>
<g opacity="0.5">
<path opacity="0.5" d="M145.889 109.058C153.666 127.114 174.319 118.589 170.226 101.847C163.872 81.0236 139.367 90.6764 145.889 109.058Z" fill="white"/>
</g>
<g opacity="0.5">
<path opacity="0.5" d="M161.177 137C164.55 143.734 173.655 140.179 170.667 132.523C167.294 125.791 158.19 129.344 161.177 137Z" fill="white"/>
</g>
<g opacity="0.5">
<path opacity="0.5" d="M282.562 99.7105C285.819 24.657 208.458 24.623 187.308 43.1062C236.551 40.3656 261.93 67.8253 282.562 99.7105Z" fill="white"/>
</g>
<g opacity="0.35">
<path opacity="0.35" d="M128.774 143.22C128.788 137.904 127.342 132.55 124.874 127.805C121.402 153.734 94.7731 145.82 86.6629 128.552C85.7432 166.372 125.64 178.989 128.774 143.22Z" fill="#371A45"/>
</g>
<path d="M132.821 102.058C131.657 102.058 130.233 101.701 128.529 100.7C127.949 100.358 127.527 99.8004 127.358 99.1483C127.189 98.4963 127.285 97.8037 127.627 97.2229C127.968 96.6422 128.526 96.2207 129.177 96.0514C129.829 95.8821 130.522 95.9787 131.102 96.32C132.195 96.9623 132.711 96.9859 132.831 96.9815C132.995 96.8117 133.393 96.0468 133.503 94.2586C133.554 93.3433 133.532 92.4253 133.438 91.5135C133.397 91.1825 133.421 90.8466 133.51 90.5251C133.599 90.2036 133.75 89.9027 133.955 89.6396C134.16 89.3766 134.415 89.1565 134.705 88.9919C134.995 88.8274 135.314 88.7215 135.645 88.6805C135.976 88.6395 136.312 88.6641 136.633 88.7529C136.955 88.8417 137.255 88.9929 137.518 89.198C137.781 89.403 138.001 89.6579 138.166 89.948C138.331 90.2382 138.436 90.5578 138.477 90.8889C138.615 92.1589 138.643 93.4385 138.561 94.7134C138.343 97.9 137.347 100.097 135.6 101.245C134.775 101.785 133.807 102.069 132.821 102.058Z" fill="#371A45"/>
<path d="M49.8555 187.637C34.3923 183.23 22.3658 184.014 20.8586 188.132C19.7559 191.15 20.6903 196.039 27.0188 198.141C31.3411 199.576 37.547 199.309 37.547 199.309C37.547 199.309 40.7665 208.987 45.9465 212.903" fill="white"/>
<path d="M49.1705 190.044C44.9235 188.906 40.6234 187.967 36.3158 187.485C34.1929 187.228 32.0545 187.12 29.9165 187.163C28.8915 187.19 27.8688 187.275 26.8534 187.419C25.9388 187.54 25.0427 187.775 24.1859 188.117C24.0138 188.19 23.8462 188.274 23.684 188.367C23.5522 188.44 23.4272 188.525 23.3106 188.621C23.234 188.682 23.1638 188.751 23.1009 188.826C23.0901 188.837 23.0807 188.849 23.0729 188.863C23.064 188.872 23.057 188.882 23.0522 188.894C23.0456 188.901 23.0401 188.91 23.036 188.919C23.036 188.919 23.036 188.919 23.0271 188.934L23.005 188.997C22.7463 189.709 22.6653 190.473 22.7688 191.223C22.8762 192.004 23.1671 192.748 23.6176 193.395C24.1133 194.097 24.7411 194.695 25.4658 195.156C26.9892 196.165 28.9555 196.732 31.0473 197.086C32.0924 197.264 33.1656 197.393 34.2462 197.479C34.7865 197.523 35.3297 197.556 35.87 197.58C36.1416 197.591 36.4133 197.602 36.6834 197.608H37.0864H37.4732L38.8017 197.616L39.159 198.765L39.2963 199.208L39.4439 199.668C39.5423 199.975 39.6481 200.281 39.7613 200.587C39.9768 201.203 40.2041 201.818 40.4388 202.426C40.9073 203.647 41.4136 204.852 41.9578 206.042C42.4996 207.232 43.1032 208.392 43.7662 209.518C43.8459 209.666 43.933 209.8 44.0186 209.939C44.1042 210.078 44.1898 210.22 44.2814 210.354L44.5515 210.766L44.8335 211.171C45.2199 211.711 45.6338 212.232 46.0735 212.73C46.1063 212.767 46.1252 212.814 46.1271 212.863C46.1289 212.912 46.1136 212.96 46.0836 212.999C46.0537 213.038 46.0111 213.066 45.9632 213.077C45.9152 213.087 45.8649 213.081 45.821 213.059C44.5722 212.427 43.4591 211.519 42.4745 210.522C41.4951 209.516 40.606 208.426 39.8174 207.265C39.6181 206.978 39.4262 206.686 39.2357 206.394C39.0453 206.101 38.8667 205.803 38.6881 205.508C38.3279 204.917 37.9972 204.298 37.6695 203.684C37.3418 203.07 37.0524 202.448 36.7572 201.807C36.6155 201.489 36.4767 201.169 36.3409 200.846L36.1387 200.357C36.0708 200.19 36.0103 200.037 35.9394 199.845L37.6208 201.002L37.1602 201.029L36.7174 201.048C36.4221 201.06 36.1269 201.067 35.8316 201.073C35.2412 201.084 34.6595 201.085 34.072 201.073C32.8911 201.05 31.7101 200.988 30.5291 200.853C29.306 200.724 28.0945 200.502 26.9051 200.189C26.2834 200.024 25.6721 199.822 25.0746 199.583C24.4591 199.333 23.8617 199.04 23.2869 198.706C22.0678 198.003 20.9965 197.071 20.1323 195.96C18.7622 194.18 18.0807 191.966 18.2133 189.724C18.2571 188.964 18.4 188.213 18.6384 187.49L18.6842 187.351C18.7034 187.298 18.7299 187.23 18.7536 187.171C18.8001 187.048 18.8533 186.927 18.913 186.81C18.9691 186.692 19.0311 186.579 19.096 186.471C19.161 186.363 19.2289 186.252 19.2997 186.152C19.5663 185.768 19.8775 185.417 20.2268 185.106C20.5359 184.832 20.8684 184.585 21.2203 184.368C21.5393 184.166 21.8706 183.985 22.2123 183.825C23.4327 183.272 24.7192 182.879 26.04 182.655C27.255 182.434 28.4836 182.297 29.7172 182.243C32.0966 182.143 34.4801 182.216 36.8487 182.463C41.4884 182.961 46.0716 183.891 50.539 185.239C51.1656 185.429 51.6927 185.857 52.0071 186.432C52.3214 187.006 52.3979 187.681 52.2199 188.311C52.042 188.942 51.624 189.477 51.0556 189.802C50.4873 190.127 49.8142 190.216 49.1809 190.05L49.1705 190.044Z" fill="#371A45"/>
<path d="M82.1944 235.157C81.748 235.157 81.3118 235.023 80.9433 234.771C80.5748 234.518 80.291 234.161 80.1293 233.744C79.9676 233.328 79.9355 232.873 80.0372 232.438C80.1388 232.003 80.3696 231.609 80.6991 231.308C87.4895 225.095 89.4647 215.965 86.5625 204.17C84.3157 195.034 79.8532 187.702 79.8089 187.631C79.5077 187.131 79.4161 186.532 79.554 185.965C79.6919 185.398 80.0482 184.908 80.5453 184.602C81.0424 184.296 81.6402 184.199 82.2086 184.331C82.777 184.464 83.2701 184.816 83.5806 185.31C83.7769 185.629 88.4092 193.223 90.8361 203.008C92.2857 208.846 92.64 214.255 91.8901 219.085C90.9306 225.267 88.1701 230.479 83.6869 234.58C83.2793 234.953 82.7467 235.159 82.1944 235.157Z" fill="#371A45"/>
<path d="M12.8827 190.434C13.271 190.71 13.6444 191.001 14.0076 191.299C14.3707 191.598 14.7457 191.865 15.1 192.159C15.2771 192.306 15.4602 192.441 15.6417 192.575L16.182 192.989C16.3577 193.136 16.5452 193.252 16.7267 193.384C16.9083 193.517 17.0884 193.649 17.27 193.782C18.0081 194.278 18.7535 194.772 19.561 195.241C19.9537 195.478 20.3729 195.713 20.7892 195.949L22.0765 196.658C23.8732 197.616 25.6198 198.666 27.3096 199.802C27.7308 200.097 28.148 200.393 28.5614 200.688C28.9747 200.983 29.3748 201.308 29.7763 201.624L30.3756 202.098C30.5719 202.261 30.7639 202.432 30.9572 202.597C31.344 202.929 31.7263 203.268 32.0998 203.615C32.1541 203.664 32.1897 203.731 32.2007 203.804C32.2117 203.877 32.1975 203.951 32.1604 204.015C32.1233 204.078 32.0655 204.127 31.9968 204.153C31.928 204.179 31.8523 204.181 31.7824 204.158H31.7721C30.8022 203.844 29.8737 203.473 28.9275 203.148L27.5221 202.646C27.0527 202.486 26.5857 202.325 26.1212 202.16C24.2524 201.519 22.3997 200.948 20.4896 200.335C20.0054 200.176 19.5285 200.022 19.0399 199.845L18.3018 199.579C18.0568 199.495 17.8088 199.381 17.5637 199.284L17.1932 199.136C17.0692 199.084 16.9452 199.034 16.8227 198.972L16.0846 198.619C15.8366 198.507 15.6004 198.367 15.3613 198.234C15.1221 198.101 14.8815 197.964 14.6438 197.823C14.4062 197.683 14.1833 197.528 13.9559 197.373L13.6208 197.132C13.5057 197.057 13.395 196.984 13.2887 196.893C12.8635 196.559 12.4177 196.236 12.0221 195.877C11.8243 195.697 11.6235 195.52 11.4316 195.337C11.2397 195.153 11.0345 194.975 10.8574 194.781C10.4942 194.399 10.1385 194.009 9.79896 193.6C9.44867 193.186 9.26164 192.658 9.27301 192.116C9.28438 191.574 9.49338 191.054 9.86072 190.655C10.2281 190.256 10.7284 190.005 11.2678 189.949C11.8072 189.893 12.3484 190.036 12.7897 190.351L12.8827 190.434Z" fill="#371A45"/>
<path d="M11.3829 205.106C11.7984 205.445 12.243 205.747 12.7115 206.008C13.2404 206.295 13.7901 206.542 14.356 206.746C15.6049 207.203 17.112 207.632 18.6812 208.148C20.2515 208.675 21.7843 209.308 23.2692 210.042C24.7517 210.762 26.1769 211.595 27.5325 212.532C27.5895 212.574 27.6313 212.634 27.6516 212.702C27.6719 212.769 27.6697 212.842 27.6453 212.909C27.6208 212.975 27.5755 213.032 27.516 213.071C27.4566 213.109 27.3862 213.127 27.3155 213.123H27.3081C25.6843 212.975 24.0826 212.779 22.5061 212.591C20.9295 212.404 19.3706 212.223 17.8457 212.089C16.3208 211.955 14.6527 211.848 12.8665 211.327C11.9107 211.057 11.0004 210.646 10.1651 210.109C9.26391 209.531 8.49928 208.763 7.92422 207.86C7.65738 207.415 7.55455 206.89 7.63352 206.377C7.71249 205.864 7.96829 205.395 8.35665 205.05C8.74502 204.706 9.2415 204.508 9.76019 204.492C10.2789 204.475 10.7871 204.64 11.1969 204.958L11.3829 205.106Z" fill="#371A45"/>
<path d="M33.0918 243.595C32.779 245.617 32.6255 247.661 32.6327 249.707C32.6401 250.215 32.6327 250.721 32.6519 251.229L32.7169 252.744L32.8364 254.253C32.8527 254.504 32.8822 254.754 32.9147 255.003L33.0047 255.752L33.0948 256.49L33.2158 257.229C33.3014 257.722 33.3708 258.214 33.4682 258.705C33.6823 259.68 33.8624 260.652 34.1414 261.601C34.6167 263.521 35.312 265.355 36.0324 267.144L36.0619 267.218C36.3111 267.837 36.3044 268.529 36.0432 269.143C35.782 269.757 35.2877 270.242 34.6691 270.491C34.0505 270.74 33.3583 270.734 32.7447 270.472C32.1311 270.211 31.6463 269.717 31.3971 269.098C31.3349 268.941 31.288 268.779 31.2569 268.614C30.8598 266.464 30.5277 264.324 30.4361 262.177C30.3505 261.108 30.3697 260.036 30.3549 258.973C30.3549 258.441 30.3919 257.909 30.4081 257.381L30.4406 256.588L30.5055 255.796L30.572 255.008C30.5926 254.745 30.6133 254.482 30.6502 254.221L30.8436 252.657L31.0945 251.105C31.1801 250.59 31.2938 250.071 31.3898 249.566C31.7996 247.534 32.3687 245.538 33.0918 243.595Z" fill="#371A45"/>
</g>
<defs>
<clipPath id="clip0_4_196">
<rect width="354" height="342" fill="white"/>
</clipPath>
</defs>
</svg>
