<svg width="316" height="316" viewBox="0 0 316 316" fill="none" xmlns="http://www.w3.org/2000/svg">
<g clip-path="url(#clip0_5_568)">
<path d="M316 158C316 160.231 316 162.29 316 164.692C316 166.365 316 168.039 315.7 169.583C315.399 171.127 315.442 172.543 315.314 173.873C315.185 175.203 314.885 178.163 314.542 180.051C314.542 180.608 314.542 181.209 314.542 181.766C314.227 183.74 313.884 185.713 313.512 187.687C313.212 189.274 312.868 190.818 312.525 192.406C312.182 193.993 311.796 195.623 311.367 197.168C310.037 202.23 308.536 207.206 306.777 212.054C306.348 213.255 305.876 214.413 305.404 215.657C304.546 217.759 303.688 219.947 302.744 221.921C301.8 223.894 301.114 225.567 300.256 227.369C299.398 229.171 298.325 231.144 297.296 232.989C296.695 234.147 296.052 235.305 295.408 236.335C294.765 237.365 294.121 238.566 293.478 239.638C292.834 240.711 291.719 242.427 290.818 243.928L287.214 249.291L283.997 253.109L281.38 256.541C278.806 259.673 276.146 262.761 273.315 265.764L269.711 269.582L269.282 270.011L265.464 273.615C262.761 276.103 259.973 278.591 257.142 280.822C255.726 282.023 254.267 283.139 252.852 284.254C252.752 284.234 252.65 284.234 252.551 284.254C251.179 285.284 249.72 286.27 248.261 287.257C246.803 288.244 245.215 289.359 243.671 290.346C242.127 291.333 240.582 292.362 238.952 293.306C233.546 296.461 227.976 299.325 222.264 301.886L219.476 303.044C216.644 304.245 213.77 305.361 210.896 306.39C208.879 307.077 206.863 307.763 204.847 308.364C202.83 308.964 199.913 309.865 197.382 310.509L191.719 311.882L188.159 312.611L185.156 313.126C180.608 313.898 176.018 314.541 171.342 314.885C170.484 314.885 169.583 314.885 168.682 315.142C165.122 315.399 161.561 315.485 157.914 315.485C155.769 315.485 153.624 315.485 151.479 315.485H147.189L143.629 315.185C142.642 315.185 141.655 315.185 140.626 314.885L137.58 314.541C136.679 314.541 135.778 314.541 134.877 314.155C133.976 313.769 133.032 313.898 132.132 313.683C131.425 313.625 130.724 313.525 130.029 313.383C129.343 313.383 128.657 313.383 128.013 312.997H127.413H127.155H126.855L123.594 312.311L120.291 311.581L117.46 310.852C117.275 310.884 117.087 310.884 116.902 310.852L113.899 310.037L108.665 308.407L107.464 307.978C106.774 307.807 106.099 307.577 105.448 307.291C104.59 306.991 103.732 306.734 102.917 306.39C101.029 305.704 99.1416 304.932 97.254 304.16C96.8816 304.039 96.5223 303.881 96.1815 303.688C94.5513 303.044 92.964 302.315 91.3767 301.543C89.7894 300.771 87.859 299.87 86.143 299.012C85.3302 298.649 84.5421 298.233 83.7835 297.768C81.8959 296.781 80.0083 295.751 78.2065 294.679L75.7183 293.22L74.4742 292.405C72.415 291.161 70.4416 289.831 68.4253 288.458C67.6532 287.944 66.9239 287.386 66.1946 286.828C65.2852 286.252 64.4113 285.622 63.5777 284.941C61.9046 283.739 60.2315 282.452 58.6442 281.122L56.3276 278.849L54.1826 277.004L52.0376 275.116C51.3512 274.43 50.6219 273.829 49.9355 273.186C45.903 269.368 42.042 265.378 38.3526 261.131C37.752 260.445 37.1514 259.758 36.6366 259.072L35.5641 257.785L35.0493 257.399C34.4487 256.67 33.8481 255.983 33.2904 255.211C32.0463 253.624 30.8451 251.951 29.6439 250.32C28.4427 248.69 27.2415 246.888 26.0832 245.087C24.9249 243.285 23.7667 241.569 22.6942 239.767C21.6217 237.965 20.5492 236.121 19.5196 234.276C18.49 232.431 17.5462 230.586 16.6024 228.656C15.6586 226.725 14.7577 224.838 13.8997 222.907C13.0417 220.977 12.5269 219.733 11.8834 218.146C10.8967 215.829 9.95292 213.427 9.13782 211.024C4.26392 197.202 1.37516 182.758 0.55786 168.124C0.000162174 164.435 0.000162181 161.217 0.000162181 158C-0.06483 118.005 15.1062 79.4868 42.4281 50.2786C45.9531 46.4675 49.6762 42.8446 53.582 39.4249C56.3276 37.0225 59.159 34.663 62.162 32.4752C66.2972 29.3896 70.5932 26.5255 75.0319 23.8952C75.646 23.4026 76.3069 22.9715 77.0053 22.6082L82.1533 19.6481C83.2687 19.0475 84.3412 18.404 85.3279 17.9321L87.3013 16.9883C93.6565 13.7205 100.237 10.9106 106.992 8.57996L109.909 7.63617C115.939 5.64346 122.085 4.02449 128.313 2.78849C130.33 2.40239 132.603 2.01629 134.448 1.75889C135.764 1.53009 137.094 1.35849 138.438 1.24409L143.8 0.600597L150.493 0C153.024 0 155.426 0 157.957 0C160.488 0 162.247 0 164.349 0C166.451 0 168.639 0.214499 170.741 0.428998C172.843 0.643497 175.031 0.772197 177.133 1.0296L183.397 1.93049C187.687 2.61689 191.977 3.51778 196.267 4.50448C208.572 7.60453 220.456 12.1853 231.659 18.1466L236.378 20.7635L237.236 21.4499C237.553 21.669 237.883 21.8696 238.223 22.0505L241.183 23.8094C241.703 24.108 242.204 24.4375 242.684 24.7961C243.457 25.2251 244.229 25.7828 245.044 26.3405C245.859 26.8982 247.017 27.6275 248.004 28.3139C249.763 29.5151 251.479 30.8021 253.195 32.0462L253.924 32.6039L257.013 34.9633C258.815 36.4648 260.659 38.0092 262.375 39.6394C263.319 40.4116 264.22 41.2267 265.078 42.0418C265.936 42.8569 267.609 44.4013 268.81 45.6025C270.012 46.8037 271.17 47.962 272.328 49.2061C273.486 50.4502 275.202 52.2091 276.618 53.7964L277.819 55.1692C278.071 55.4359 278.301 55.7228 278.506 56.0272L279.192 56.8422C281.251 59.2446 283.225 61.6899 285.112 64.2639L288.458 69.0687C290.389 71.9001 292.191 74.7744 293.95 77.6487C295.108 79.5791 296.223 81.5525 297.253 83.5688C297.576 84.0546 297.85 84.572 298.068 85.1132C299.14 87.0866 300.17 89.1887 301.157 91.2908C302.658 94.4225 304.031 97.64 305.447 100.815L307.249 105.705C307.72 107.035 308.149 108.408 308.621 109.781C309.093 111.153 309.308 111.883 309.608 112.998C310.681 116.73 311.71 120.548 312.525 124.409C313.04 126.64 313.469 128.914 313.812 131.145C314.05 132.206 314.222 133.28 314.327 134.362C314.327 134.362 314.327 134.362 314.327 134.577C314.327 135.649 314.67 136.765 314.756 137.837C314.8 138.035 314.8 138.24 314.756 138.438L315.013 140.797C315.06 141.583 315.06 142.371 315.013 143.157C315.013 143.414 315.013 143.757 315.013 144.058V145.001C315.013 145.001 315.013 145.387 315.013 145.602C315.035 145.859 315.035 146.117 315.013 146.374C315.829 150.149 316 154.053 316 158Z" fill="url(#paint0_radial_5_568)"/>
<path d="M210.895 306.905C191.316 313.849 170.561 316.865 149.815 315.782C129.07 314.699 108.741 309.537 89.9912 300.593C71.2416 291.648 54.4387 279.096 40.5432 263.654C26.6478 248.211 15.9321 230.181 9.00897 210.595C10.9874 210.933 12.8991 211.585 14.6717 212.526C20.6996 216.438 25.9146 221.478 30.0299 227.369C34.1605 233.237 40.0268 237.663 46.8037 240.024C56.2417 242.427 67.8675 237.794 74.946 244.314C78.7212 247.789 80.1797 253.838 84.9845 255.64C89.7893 257.442 96.1814 252.208 96.5246 246.545C96.4336 243.71 95.7579 240.925 94.5398 238.363C93.3218 235.801 91.5876 233.519 89.4461 231.659C85.1763 227.886 81.2696 223.721 77.7774 219.218C76.0581 216.879 75.085 214.076 74.9855 211.175C74.886 208.274 75.6647 205.41 77.2197 202.959C78.947 201.064 81.216 199.747 83.7182 199.186C86.2204 198.626 88.8344 198.85 91.205 199.827C95.9104 201.951 99.7533 205.612 102.102 210.209C106.606 217.674 108.494 226.382 112.44 234.061C116.387 241.74 123.337 249.119 132.046 249.291C139.682 249.291 148.819 244.572 154.096 250.106C156.97 253.152 156.842 257.871 157.871 261.946C160.917 273.958 173.787 280.093 185.156 284.983C196.524 289.874 208.021 296.009 210.895 306.905Z" fill="url(#paint1_radial_5_568)"/>
<path style="mix-blend-mode:multiply" opacity="0.35" d="M316 158C316 160.231 316 162.29 316 164.692C316 166.365 316 168.039 315.7 169.583C315.399 171.127 315.442 172.543 315.314 173.873C315.185 175.203 314.885 178.163 314.541 180.05C314.541 180.608 314.541 181.209 314.541 181.766C314.227 183.74 313.884 185.713 313.512 187.687C313.212 189.274 312.868 190.818 312.525 192.406C312.182 193.993 311.796 195.623 311.367 197.167C310.037 202.23 308.535 207.206 306.777 212.054C306.348 213.255 305.876 214.413 305.404 215.657C304.546 217.759 303.688 219.947 302.744 221.921C301.8 223.894 301.114 225.567 300.256 227.369C299.398 229.171 298.325 231.144 297.296 232.989C296.695 234.147 296.052 235.305 295.408 236.335C294.765 237.365 294.121 238.566 293.478 239.638C292.834 240.711 291.719 242.427 290.818 243.928L287.214 249.291L283.997 253.109L281.38 256.541C278.806 259.673 276.146 262.761 273.315 265.764L269.711 269.582L269.282 270.011L265.464 273.615C262.761 276.103 259.973 278.591 257.141 280.822C255.726 282.023 254.267 283.139 252.851 284.254C252.752 284.234 252.65 284.234 252.551 284.254C251.178 285.284 249.72 286.27 248.261 287.257C246.803 288.244 245.215 289.359 243.671 290.346C242.127 291.333 240.582 292.362 238.952 293.306C233.546 296.461 227.976 299.325 222.264 301.886L219.475 303.044C216.644 304.245 213.77 305.361 210.895 306.39C208.879 307.077 206.863 307.763 204.847 308.364C202.83 308.964 199.913 309.865 197.382 310.509L191.719 311.882L188.159 312.611L185.156 313.126C180.608 313.898 176.018 314.541 171.342 314.885C170.484 314.885 169.583 314.885 168.682 315.142C165.121 315.399 161.561 315.485 157.914 315.485C155.769 315.485 153.624 315.485 151.479 315.485H147.189L143.629 315.185C142.642 315.185 141.655 315.185 140.626 314.885L137.58 314.541C136.679 314.541 135.778 314.541 134.877 314.155C133.976 313.769 133.032 313.898 132.131 313.683C131.425 313.625 130.723 313.525 130.029 313.383C129.343 313.383 128.657 313.383 128.013 312.997H127.412H127.155H126.855L123.594 312.311L120.291 311.581L117.46 310.852C117.275 310.884 117.087 310.884 116.902 310.852L113.899 310.037L108.665 308.407L107.464 307.978C106.774 307.807 106.099 307.577 105.448 307.291C104.59 306.991 103.732 306.734 102.917 306.39C101.029 305.704 99.1415 304.932 97.2539 304.16C96.8814 304.039 96.5221 303.881 96.1814 303.688C94.5512 303.044 92.9639 302.315 91.3766 301.543C89.7893 300.771 87.8588 299.87 86.1428 299.012C85.3301 298.649 84.5419 298.233 83.7833 297.768C81.8957 296.781 80.0081 295.751 78.2064 294.679L75.7182 293.22L74.4741 292.405C72.4149 291.161 70.4415 289.831 68.4252 288.458C67.653 287.943 66.9237 287.386 66.1944 286.828C65.285 286.252 64.4111 285.622 63.5775 284.94C61.9044 283.739 60.2313 282.452 58.644 281.122L56.3274 278.849L54.1825 277.004L52.0375 275.116C51.3511 274.43 50.6218 273.829 49.9354 273.186C45.9028 269.368 42.0418 265.378 38.3524 261.131C37.7518 260.445 37.1512 259.758 36.6364 259.072L35.5639 257.785C34.7059 256.798 33.9337 255.812 33.1187 254.825C56.9928 268.496 84.0281 275.684 111.54 275.674C146.609 275.683 180.681 263.999 208.364 242.47C213.033 238.888 217.474 235.019 221.663 230.887C250.375 203.041 267.402 165.305 269.282 125.353C269.282 122.822 269.282 120.291 269.282 117.717C269.312 101.892 266.94 86.1548 262.247 71.0421C261.002 66.9666 259.587 62.934 257.957 59.0301C252.443 45.3189 245.05 32.4402 235.992 20.7635L237.236 21.4499C237.553 21.669 237.882 21.8696 238.223 22.0505L241.183 23.8094C241.702 24.108 242.204 24.4375 242.684 24.7961C243.456 25.2251 244.229 25.7828 245.044 26.3405C245.859 26.8982 247.017 27.6275 248.004 28.3139C249.763 29.515 251.479 30.802 253.195 32.0461L253.924 32.6038C256.841 34.8775 259.673 37.1941 262.504 39.6394C263.448 40.4116 264.349 41.2267 265.207 42.0418C266.065 42.8569 267.738 44.4013 268.939 45.6025C270.14 46.8037 271.298 47.962 272.457 49.2061C273.615 50.4502 275.331 52.209 276.747 53.7963C277.133 54.3111 277.476 54.7401 277.905 55.212L278.634 56.0271L279.321 56.8422C281.337 59.3304 283.31 61.8186 285.241 64.3497L288.587 69.0258C290.517 71.8572 292.319 74.7314 294.078 77.6057C295.236 79.5362 296.352 81.5096 297.381 83.5259C297.705 84.0116 297.978 84.5291 298.197 85.0703C299.269 87.0437 300.299 89.1458 301.285 91.2479C302.787 94.3796 304.16 97.597 305.575 100.772L307.377 105.662C307.849 106.992 308.278 108.365 308.75 109.738C309.222 111.11 309.436 111.84 309.737 112.955C310.809 116.687 311.839 120.506 312.654 124.367C313.169 126.597 313.598 128.871 313.941 131.102C314.178 132.163 314.35 133.237 314.456 134.319C314.456 134.319 314.456 134.319 314.456 134.534C314.456 135.606 314.799 136.722 314.885 137.794C314.929 137.992 314.929 138.197 314.885 138.395L315.142 140.754C315.188 141.54 315.188 142.328 315.142 143.114C315.142 143.371 315.142 143.714 315.142 144.015C315.142 144.315 315.142 145.044 315.142 145.559C315.163 145.816 315.163 146.074 315.142 146.331C315.828 150.149 316 154.053 316 158Z" fill="url(#paint2_radial_5_568)"/>
<path style="mix-blend-mode:multiply" opacity="0.35" d="M316 158C316 160.231 316 162.29 316 164.692C316 166.365 316 168.039 315.7 169.583C315.399 171.127 315.442 172.543 315.314 173.873C315.185 175.203 314.885 178.163 314.541 180.05C314.541 180.608 314.541 181.209 314.541 181.766C314.227 183.74 313.884 185.713 313.512 187.687C313.212 189.274 312.868 190.818 312.525 192.406C312.182 193.993 311.796 195.623 311.367 197.168C310.037 202.23 308.535 207.206 306.777 212.054C306.348 213.255 305.876 214.413 305.404 215.657C304.546 217.759 303.688 219.947 302.744 221.921C301.8 223.894 301.114 225.567 300.256 227.369C299.398 229.171 298.325 231.144 297.296 232.989C296.695 234.147 296.052 235.305 295.408 236.335C294.765 237.365 294.121 238.566 293.478 239.638C292.834 240.711 291.719 242.427 290.818 243.928L287.214 249.291L283.997 253.109L281.38 256.541C278.806 259.673 276.146 262.761 273.315 265.764L269.711 269.582L269.282 270.011L265.464 273.615C262.761 276.103 259.973 278.591 257.141 280.822C255.726 282.023 254.267 283.139 252.851 284.254C252.752 284.234 252.65 284.234 252.551 284.254C251.178 285.284 249.72 286.27 248.261 287.257C246.803 288.244 245.215 289.359 243.671 290.346C242.127 291.333 240.582 292.362 238.952 293.306C233.546 296.461 227.976 299.325 222.264 301.886L219.475 303.044C216.644 304.245 213.77 305.361 210.895 306.39C208.879 307.077 206.863 307.763 204.847 308.364C202.83 308.964 199.913 309.865 197.382 310.509L191.719 311.882L188.159 312.611L185.156 313.126C180.608 313.898 176.018 314.541 171.342 314.885C170.484 314.885 169.583 314.885 168.682 315.142C165.121 315.399 161.561 315.485 157.914 315.485C155.769 315.485 153.624 315.485 151.479 315.485H147.189L143.629 315.185C142.642 315.185 141.655 315.185 140.626 314.885L137.58 314.541C136.679 314.541 135.778 314.541 134.877 314.155C133.976 313.769 133.032 313.898 132.131 313.683C131.425 313.625 130.723 313.525 130.029 313.383C129.343 313.383 128.657 313.383 128.013 312.997H127.412H127.155H126.855L123.594 312.311L120.291 311.581L117.46 310.852C117.275 310.884 117.087 310.884 116.902 310.852L113.899 310.037L108.665 308.407L107.464 307.978C106.774 307.807 106.099 307.577 105.448 307.291C104.59 306.991 103.732 306.734 102.917 306.39C101.029 305.704 99.1415 304.932 97.2539 304.16C96.8814 304.039 96.5221 303.881 96.1814 303.688C94.5512 303.044 92.9639 302.315 91.3766 301.543C89.7893 300.771 87.8588 299.87 86.1428 299.012C85.3301 298.649 84.5419 298.233 83.7833 297.768C81.8957 296.781 80.0081 295.751 78.2064 294.679L75.7182 293.22L74.4741 292.405C72.4149 291.161 70.4415 289.831 68.4252 288.458C67.653 287.944 66.9237 287.386 66.1944 286.828C65.285 286.252 64.4111 285.622 63.5775 284.941C61.9044 283.739 60.2313 282.452 58.644 281.122L56.3275 278.849L54.1825 277.004L52.0375 275.116C51.3511 274.43 50.6218 273.829 49.9354 273.186C47.9191 271.298 45.9457 269.325 44.0152 267.352L44.7874 267.909C46.8037 269.282 48.7771 270.612 50.8363 271.856L52.0804 272.671L54.5686 274.13C56.3704 275.202 58.215 276.275 60.1026 277.261L62.505 278.463C64.221 279.364 65.937 280.179 67.6959 281.037L72.5436 283.182L73.6161 283.654L79.2789 285.841C80.106 286.186 80.9509 286.487 81.8099 286.742C82.4612 287.028 83.1358 287.258 83.8262 287.429L85.0274 287.858L90.0896 289.574L93.0926 290.389H93.6503L96.4817 291.075L99.785 291.804L103.045 292.491H103.346H103.603H104.204L106.22 292.834L108.322 293.177L111.025 293.649L113.77 293.992L116.816 294.378L119.819 294.636L123.38 294.936C124.753 294.936 126.168 294.936 127.67 294.936C129.815 294.936 131.96 294.936 134.105 294.936C137.708 294.936 141.312 294.936 144.873 294.55C145.774 294.55 146.674 294.55 147.532 294.293C152.209 293.992 156.799 293.306 161.346 292.577L164.349 292.019L167.91 291.29C169.797 290.904 171.685 290.432 173.573 289.96C176.104 289.273 178.592 288.587 181.037 287.815L187.043 285.799C189.917 284.769 192.792 283.654 195.623 282.452L198.455 281.294C204.166 278.734 209.737 275.869 215.143 272.714C216.73 271.813 218.317 270.826 219.862 269.754C221.406 268.682 222.907 267.781 224.452 266.665C225.996 265.55 227.326 264.692 228.742 263.662H229.042C230.501 262.547 231.959 261.431 233.332 260.23C236.163 257.999 238.952 255.511 241.655 253.023C242.942 251.865 244.229 250.664 245.43 249.419L245.902 248.99L249.505 245.215C252.337 242.169 254.996 239.081 257.528 235.992L260.187 232.517C261.131 231.273 262.075 230.029 262.976 228.742C263.877 227.455 265.464 225.138 266.622 223.379C267.781 221.62 268.424 220.591 269.282 219.089L271.213 215.786C271.856 214.756 272.457 213.598 273.1 212.44C274.13 210.595 275.074 208.75 276.017 206.82C276.961 204.889 277.733 203.173 278.548 201.372C279.364 199.57 280.35 197.082 281.208 195.108C281.68 193.907 282.152 192.706 282.581 191.505C284.34 186.657 285.841 181.681 287.171 176.618C287.6 175.074 287.986 173.487 288.33 171.857C288.673 170.269 289.016 168.725 289.273 167.138C289.531 165.55 290.046 163.191 290.346 161.217C290.346 160.66 290.346 160.059 290.56 159.544C290.904 157.442 291.118 155.254 291.333 153.324C291.547 151.393 291.633 150.45 291.719 149.034C291.805 147.618 291.719 145.816 292.019 144.186V143.929C292.019 141.698 292.019 139.467 292.019 137.236C292.019 133.29 292.019 129.386 291.59 125.525C291.59 125.267 291.59 125.01 291.59 124.753C291.59 124.495 291.59 123.723 291.59 123.208C291.569 122.908 291.569 122.607 291.59 122.307C291.634 121.521 291.634 120.734 291.59 119.948L291.333 117.588C291.377 117.391 291.377 117.186 291.333 116.988C291.333 115.915 291.075 114.8 290.904 113.727C290.92 113.657 290.92 113.583 290.904 113.513C290.795 112.431 290.623 111.357 290.389 110.295C290.046 108.065 289.617 105.791 289.102 103.56C288.287 99.6992 287.257 95.8811 286.185 92.1488C285.884 91.0763 285.541 90.0467 285.198 88.9742C284.855 87.9017 284.297 86.1857 283.825 84.6842L282.023 79.7936C280.779 76.6191 279.406 73.4016 277.733 70.3128C276.747 68.1678 275.717 66.0228 274.645 64.0923C274.427 63.5423 274.139 63.0231 273.787 62.5479C272.696 60.7636 271.522 59.0314 270.269 57.357C268.553 54.4399 266.708 51.5656 264.821 48.7771L261.474 44.0581C259.544 41.527 257.57 39.0388 255.554 36.5506L254.825 35.7355C254.825 35.4781 254.353 35.2207 254.138 34.9204L253.109 33.4189C251.736 31.8746 250.32 30.3302 248.819 28.8287L248.175 28.1423C249.934 29.3435 251.65 30.6305 253.366 31.8746L254.096 32.4323C257.013 34.7059 259.844 37.0225 262.676 39.4678C263.619 40.24 264.52 41.0551 265.378 41.8702C266.236 42.6853 267.909 44.2297 269.111 45.4309C270.312 46.6321 271.47 47.7904 272.628 49.0345C273.787 50.2786 275.503 52.0375 276.918 53.6248C277.304 54.1396 277.648 54.5686 278.077 55.0405L278.806 55.8556L279.492 56.6706C281.509 59.1588 283.482 61.647 285.412 64.1781L288.759 68.8542C290.689 71.6856 292.491 74.5599 294.25 77.4342C295.408 79.3646 296.523 81.338 297.553 83.3543C297.877 83.8401 298.15 84.3575 298.368 84.8987C299.441 86.8721 300.47 88.9742 301.457 91.0763C302.958 94.208 304.331 97.4255 305.747 100.6L307.549 105.491C308.021 106.821 308.45 108.193 308.922 109.566C309.393 110.939 309.608 111.668 309.908 112.784C310.981 116.516 312.01 120.334 312.825 124.195C313.34 126.426 313.769 128.699 314.112 130.93C314.35 131.991 314.522 133.066 314.627 134.148C314.627 134.148 314.627 134.148 314.627 134.362C314.627 135.435 314.97 136.55 315.056 137.623C315.101 137.82 315.101 138.025 315.056 138.223L315.314 140.583C315.36 141.368 315.36 142.156 315.314 142.942C315.314 143.2 315.314 143.543 315.314 143.843C315.314 144.143 315.314 144.873 315.314 145.387C315.335 145.644 315.335 145.903 315.314 146.16C315.828 150.149 316 154.053 316 158Z" fill="url(#paint3_radial_5_568)"/>
<path style="mix-blend-mode:screen" opacity="0.77" d="M227.369 86.6147C227.798 87.6443 228.227 88.6739 228.613 89.7464C228.929 90.5022 229.202 91.2757 229.428 92.063C229.688 92.7637 229.903 93.4801 230.072 94.208C230.415 95.1947 230.672 96.2243 230.93 97.2539C230.93 97.5113 230.93 97.8116 230.93 98.1119C231.187 99.0986 231.359 100.085 231.53 101.115C231.702 102.144 231.788 102.745 231.916 103.56C232.045 104.375 232.131 105.233 232.217 106.048C232.466 108.729 232.566 111.422 232.517 114.114C232.517 114.8 232.517 115.486 232.517 116.173C232.517 116.859 232.517 118.532 232.217 119.733C231.916 120.935 232.002 121.835 231.873 122.908C231.745 123.98 231.487 125.182 231.273 126.297C231.058 127.412 231.015 127.67 230.844 128.313C230.672 128.957 230.544 129.686 230.372 130.33C230.2 130.973 229.9 132.089 229.686 132.947C229.471 133.805 228.999 135.263 228.613 136.379C228.227 137.494 228.055 138.052 227.755 138.867C227.455 139.682 227.154 140.368 226.897 141.14C225.996 143.242 225.095 145.43 224.023 147.49C223.594 148.39 223.165 149.291 222.65 150.192V150.493C222.178 151.393 221.706 152.251 221.191 153.109C220.076 154.997 218.961 156.842 217.717 158.644C217.116 159.544 216.515 160.445 215.872 161.303L213.984 163.749L211.925 166.365C211.242 167.262 210.512 168.121 209.737 168.939C207.206 171.814 204.546 174.602 201.715 177.305L200.299 178.549C197.461 181.142 194.482 183.576 191.376 185.842L190.046 186.786L188.845 187.687C187.858 188.373 186.829 189.102 185.799 189.746L183.997 190.904L182.196 192.02C179.664 193.564 177.09 195.065 174.431 196.31C173.444 196.824 172.414 197.382 171.385 197.854L170.484 198.283L166.666 200.042L162.848 201.629L158.215 203.388L154.439 205.061L151.007 205.919C150.535 205.919 150.106 206.219 149.635 206.305L148.004 206.777H147.618L143.328 207.764C141.998 208.107 140.583 208.364 139.038 208.622L135.606 209.222L133.504 209.566L131.831 209.78C129.214 210.123 126.64 210.338 124.066 210.509H120.463H116.687H113.17H111.325H109.523L106.306 210.209C104.976 210.209 103.732 209.952 102.445 209.737L98.927 209.179C97.8545 208.965 96.7391 208.793 95.6666 208.536C94.5941 208.279 93.4358 208.107 92.4062 207.807H92.1059L89.1458 206.992L86.1857 206.091L83.3114 205.147L80.5229 204.074C71.9616 200.734 64.0711 195.88 57.2284 189.746C50.5419 183.616 45.2213 176.147 41.6128 167.824C32.0462 145.902 35.6497 120.935 49.1203 99.1844C50.2357 97.3826 51.4369 95.5379 52.681 93.779C54.4828 91.2479 56.4133 88.7597 58.4725 86.4002C58.7527 86.0006 59.0685 85.6273 59.4162 85.2848C60.2313 84.2981 61.0464 83.3972 61.8186 82.5821L63.3201 80.952L64.3068 80.0081C67.4152 76.8375 70.7254 73.8712 74.2167 71.1279L75.7611 69.8838C79.9823 66.6261 84.4103 63.6455 89.0171 60.9606L91.2479 59.6736L94.3796 57.9148C95.6237 57.2284 96.9107 56.5849 98.1977 55.9843C99.4847 55.3837 101.072 54.6115 102.488 53.968L106.263 52.3807L110.081 50.9221L113.985 49.5922C115.229 49.2061 116.516 48.7771 117.803 48.4339C120.463 47.6188 123.122 46.9753 125.825 46.3747C129.705 45.4843 133.628 44.797 137.58 44.3155C141.569 43.8436 145.516 43.5862 149.42 43.5004H156.155C156.512 43.4597 156.871 43.4597 157.228 43.5004H158.901H161.089L164.864 43.8865H165.422C166.199 43.9445 166.972 44.0447 167.738 44.1868C169.816 44.4836 171.878 44.8845 173.916 45.388L176.79 46.0744L179.622 46.8466C180.78 47.1469 181.895 47.4901 183.053 47.8762L184.04 48.1765L185.198 48.6055C186.914 49.2061 188.545 49.8496 190.175 50.536L193.092 51.9088C194.808 52.7239 196.438 53.5819 198.068 54.4828C199.146 55.0548 200.191 55.6849 201.2 56.3704C201.472 56.5021 201.731 56.6601 201.972 56.8423C203.045 57.4858 204.074 58.215 205.061 58.9443C206.048 59.6736 208.021 61.1322 209.351 62.2905L211.41 64.0923L213.04 65.6367C213.469 66.0657 213.898 66.4518 214.285 66.8808C216.515 69.1614 218.579 71.5986 220.462 74.1738C220.762 74.6457 221.106 75.0747 221.363 75.5466C221.62 76.0185 221.363 75.5466 221.363 75.5466L222.307 76.9623V77.2197L222.95 78.2064L223.551 79.2789C223.733 79.5353 223.891 79.8082 224.023 80.0939C224.023 80.0939 224.023 80.5229 224.366 80.6945C225.696 83.0111 226.597 84.77 227.369 86.6147Z" fill="url(#paint4_linear_5_568)"/>
<path d="M312.354 124.409C309.737 124.409 306.991 124.409 304.117 124.409L290.131 123.723L284.469 123.466C279.32 122.764 274.077 123.507 269.325 125.611C268.489 126.091 267.712 126.667 267.008 127.327C264.606 129.6 263.147 132.947 260.23 134.405C257.376 135.303 254.363 135.581 251.393 135.22C246.901 135.612 242.581 137.131 238.832 139.635C235.082 142.14 232.025 145.549 229.943 149.549C225.902 156.49 223.005 164.037 221.363 171.9C217.373 190.561 219.39 210.509 221.363 229.299C221.363 229.943 221.363 230.544 221.363 231.144C221.922 234.441 221.551 237.828 220.291 240.925C219.553 242.743 218.141 244.205 216.349 245.005C214.558 245.805 212.527 245.88 210.681 245.215C209.613 244.62 208.713 243.764 208.064 242.727C207.439 241.735 206.88 240.704 206.391 239.638C203.645 233.675 203.045 227.24 200.514 221.535C196.91 213.469 190.175 215.7 183.354 212.697C181.037 211.348 179.06 209.487 177.573 207.256C176.086 205.025 175.129 202.485 174.774 199.827L174.13 196.781C173.623 192.521 172.45 188.366 170.655 184.469C170.08 183.253 169.154 182.237 167.996 181.552C166.931 181.131 165.794 180.926 164.649 180.951C157.648 180.785 150.648 181.331 143.757 182.582C138.094 183.74 133.247 188.416 127.412 188.373C117.674 188.373 113.513 175.503 114.542 165.894C115.572 156.284 119.219 145.688 114.328 137.279C106.563 123.98 83.1398 125.568 77.6916 111.153C72.2433 96.7391 89.8751 85.4135 104.633 82.6679C119.39 79.9223 137.537 78.378 143.843 64.8645C145.171 61.5313 145.821 57.9668 145.754 54.3795C145.688 50.7922 144.907 47.2541 143.457 43.9723C142.167 40.4869 140.618 37.1028 138.824 33.8479C133.547 24.3242 127.155 14.5859 127.541 3.81808C127.52 3.60409 127.52 3.38857 127.541 3.17459C129.557 2.78849 131.831 2.40239 133.676 2.14499C134.991 1.91619 136.321 1.74459 137.665 1.63019L143.8 0.600597L150.493 0C153.024 0 155.426 0 157.957 0C160.488 0 162.247 0 164.349 0C166.451 0 168.639 0.214499 170.741 0.428998C172.843 0.643497 175.031 0.772197 177.133 1.0296L183.397 1.93049C187.687 2.61689 191.977 3.51778 196.267 4.50448C202.088 5.93238 207.818 7.70878 213.427 9.82406L214.413 10.1673C220.284 12.4415 226.014 15.063 231.573 18.0179L236.292 20.6348L237.236 21.4499C237.553 21.669 237.882 21.8696 238.223 22.0505L241.183 23.8094C241.702 24.108 242.204 24.4375 242.684 24.7961C243.456 25.2251 244.229 25.7828 245.044 26.3405C245.859 26.8982 247.017 27.6275 248.004 28.3139C249.763 29.5151 251.479 30.8021 253.195 32.0462L253.924 32.6039L257.013 34.9633C258.815 36.4648 260.659 38.0092 262.375 39.6394C263.319 40.4116 264.22 41.2267 265.078 42.0418C265.936 42.8569 267.609 44.4013 268.81 45.6025C270.011 46.8037 271.17 47.962 272.328 49.2061C273.486 50.4502 275.202 52.2091 276.618 53.7964L277.819 55.1692C278.071 55.4359 278.301 55.7228 278.506 56.0272L279.192 56.8422C281.251 59.2446 283.225 61.6899 285.112 64.2639L288.458 69.0687C290.389 71.9001 292.191 74.7744 293.949 77.6487C295.108 79.5791 296.223 81.5525 297.253 83.5688C297.576 84.0546 297.849 84.572 298.068 85.1132C299.14 87.0866 300.17 89.1887 301.157 91.2908C302.658 94.4225 304.031 97.64 305.447 100.815L307.248 105.705C307.72 107.035 308.149 108.408 308.621 109.781C309.093 111.153 309.308 111.883 309.608 112.998C309.908 114.113 310.423 115.787 310.766 117.288C311.238 119.476 311.839 121.878 312.354 124.409Z" fill="url(#paint5_radial_5_568)"/>
<g style="mix-blend-mode:multiply" opacity="0.29">
<path style="mix-blend-mode:multiply" opacity="0.29" d="M310.595 117.116L305.532 116.816C301.653 116.237 297.689 116.897 294.207 118.704C293.587 119.13 293.012 119.619 292.491 120.162C291.619 121.2 290.83 122.304 290.131 123.466L284.469 123.208C279.319 122.507 274.077 123.25 269.325 125.353C268.489 125.834 267.711 126.409 267.008 127.069C264.606 129.343 263.147 132.689 260.23 134.148C257.376 135.045 254.363 135.323 251.393 134.963C246.901 135.355 242.581 136.874 238.832 139.378C235.082 141.883 232.025 145.292 229.943 149.291C225.902 156.233 223.005 163.78 221.363 171.642C221.157 170.999 220.914 170.369 220.634 169.755C220.358 168.843 219.787 168.048 219.01 167.497C218.234 166.945 217.295 166.668 216.344 166.709C211.115 166.556 205.887 167.032 200.771 168.124C196.481 169.154 192.878 173.229 188.545 173.144C181.252 173.144 178.163 162.033 179.021 153.624C179.879 145.216 182.539 136.121 179.021 128.828C173.229 117.288 155.769 118.661 151.694 106.134C147.618 93.6074 160.66 83.6975 171.599 81.5096C182.539 79.3217 196.181 77.8203 200.9 66.0657C202.915 60.1691 202.824 53.7562 200.642 47.9191C199.667 44.9821 198.492 42.1154 197.125 39.3391C193.307 30.8021 188.759 22.3508 188.759 12.8699C188.759 12.8699 188.759 12.4838 188.759 12.3123C190.261 11.9262 191.848 11.6688 193.349 11.4114C194.851 11.154 195.323 11.0682 196.352 10.9824C197.382 10.8966 199.012 10.5105 200.342 10.4247C201.672 10.3389 203.688 10.1244 205.361 10.0386C207.034 9.95276 209.008 10.0386 210.895 10.0386H213.083L214.07 10.3818C219.941 12.656 225.671 15.2775 231.23 18.2324L235.949 20.8493L237.236 21.4499C237.553 21.669 237.882 21.8696 238.223 22.0505L241.183 23.8094C241.702 24.108 242.204 24.4375 242.684 24.7961C243.456 25.2251 244.229 25.7828 245.044 26.3405C245.859 26.8982 247.017 27.6275 248.004 28.3139C249.763 29.5151 251.479 30.8021 253.195 32.0462L253.924 32.6039L257.013 34.9633C258.815 36.4648 260.659 38.0092 262.375 39.6394C263.319 40.4116 264.22 41.2267 265.078 42.0418C265.936 42.8569 267.609 44.4013 268.81 45.6025C270.011 46.8037 271.17 47.962 272.328 49.2061C273.486 50.4502 275.202 52.2091 276.618 53.7964L277.819 55.1692C278.071 55.4359 278.301 55.7228 278.506 56.0272L279.192 56.8423C281.251 59.2446 283.225 61.6899 285.112 64.2639L288.458 69.0687C290.389 71.9001 292.191 74.7744 293.949 77.6487C295.108 79.5792 296.223 81.5525 297.253 83.5688C297.576 84.0546 297.849 84.572 298.068 85.1132C299.14 87.0866 300.17 89.1887 301.157 91.2908C302.658 94.4225 304.031 97.64 305.447 100.815L307.248 105.705C307.72 107.035 308.149 108.408 308.621 109.781C309.093 111.153 309.308 111.883 309.608 112.998C309.908 114.113 310.251 115.829 310.595 117.116Z" fill="url(#paint6_radial_5_568)"/>
</g>
<path d="M56.7994 79.4933C54.826 91.0334 37.7947 93.6074 33.3332 104.418C29.3435 114.028 37.3228 124.881 35.3495 135.091C33.2045 146.245 20.9351 151.651 11.4972 158.043C7.41106 160.793 3.65418 164.003 0.300308 167.61C9.58603e-06 164.435 9.59316e-06 161.217 9.59316e-06 158C-0.0649826 118.005 15.1061 79.4868 42.4279 50.2786C43.5563 53.9242 45.377 57.318 47.7904 60.2742C52.3807 65.9799 58.0005 72.2862 56.7994 79.4933Z" fill="url(#paint7_radial_5_568)"/>
</g>
<defs>
<radialGradient id="paint0_radial_5_568" cx="0" cy="0" r="1" gradientUnits="userSpaceOnUse" gradientTransform="translate(158 158) scale(158)">
<stop offset="0.04" stop-color="#10BDF0"/>
<stop offset="0.91" stop-color="#00ADF1"/>
</radialGradient>
<radialGradient id="paint1_radial_5_568" cx="0" cy="0" r="1" gradientUnits="userSpaceOnUse" gradientTransform="translate(57.5287 226.425) scale(137.279)">
<stop offset="0.02" stop-color="#D3FC2D"/>
<stop offset="1" stop-color="#4AEA00"/>
</radialGradient>
<radialGradient id="paint2_radial_5_568" cx="0" cy="0" r="1" gradientUnits="userSpaceOnUse" gradientTransform="translate(131.874 109.695) scale(182.496)">
<stop stop-color="#CBCFFF"/>
<stop offset="0.99" stop-color="#B0B1FF"/>
</radialGradient>
<radialGradient id="paint3_radial_5_568" cx="0" cy="0" r="1" gradientUnits="userSpaceOnUse" gradientTransform="translate(8853.6 7720.31) scale(11211.2 11844.3)">
<stop stop-color="#CBCFFF"/>
<stop offset="0.99" stop-color="#B0B1FF"/>
</radialGradient>
<linearGradient id="paint4_linear_5_568" x1="36.2503" y1="127.241" x2="232.774" y2="127.241" gradientUnits="userSpaceOnUse">
<stop stop-color="#10BDF0"/>
<stop offset="1" stop-color="#B0B1FF" stop-opacity="0"/>
</linearGradient>
<radialGradient id="paint5_radial_5_568" cx="0" cy="0" r="1" gradientUnits="userSpaceOnUse" gradientTransform="translate(7776.15 5213) scale(7449.66 7765.46)">
<stop offset="0.02" stop-color="#D3FC2D"/>
<stop offset="1" stop-color="#4AEA00"/>
</radialGradient>
<radialGradient id="paint6_radial_5_568" cx="0" cy="0" r="1" gradientUnits="userSpaceOnUse" gradientTransform="translate(7353.41 2688.83) scale(3397.67 3471.72)">
<stop offset="0.02" stop-color="#D3FC2D"/>
<stop offset="1" stop-color="#4AEA00"/>
</radialGradient>
<radialGradient id="paint7_radial_5_568" cx="0" cy="0" r="1" gradientUnits="userSpaceOnUse" gradientTransform="translate(262.604 2426.23) scale(811.168 1670.79)">
<stop offset="0.02" stop-color="#D3FC2D"/>
<stop offset="1" stop-color="#4AEA00"/>
</radialGradient>
<clipPath id="clip0_5_568">
<rect width="316" height="316" fill="white"/>
</clipPath>
</defs>
</svg>
