<svg width="411" height="823" viewBox="0 0 411 823" fill="none" xmlns="http://www.w3.org/2000/svg">
<g opacity="0.35">
<path opacity="0.29" d="M206 615.278C318.82 615.278 410.278 523.82 410.278 411C410.278 298.18 318.82 206.722 206 206.722C93.1804 206.722 1.72205 298.18 1.72205 411C1.72205 523.82 93.1804 615.278 206 615.278Z" stroke="white" stroke-miterlimit="10"/>
<path opacity="0.29" d="M206 659.245C343.102 659.245 454.245 548.102 454.245 411C454.245 273.898 343.102 162.755 206 162.755C68.8978 162.755 -42.2455 273.898 -42.2455 411C-42.2455 548.102 68.8978 659.245 206 659.245Z" stroke="white" stroke-miterlimit="10"/>
<path opacity="0.29" d="M407.95 612.958C519.488 501.419 519.488 320.58 407.95 209.042C296.412 97.5041 115.573 97.5041 4.03491 209.042C-107.503 320.58 -107.503 501.419 4.03491 612.958C115.573 724.496 296.412 724.496 407.95 612.958Z" stroke="white" stroke-miterlimit="10"/>
<path opacity="0.29" d="M206 744.955C390.438 744.955 539.955 595.438 539.955 411C539.955 226.562 390.438 77.0449 206 77.0449C21.5617 77.0449 -127.955 226.562 -127.955 411C-127.955 595.438 21.5617 744.955 206 744.955Z" stroke="white" stroke-miterlimit="10"/>
<path opacity="0.29" d="M206 797.058C419.214 797.058 592.058 624.214 592.058 411C592.058 197.786 419.214 24.9421 206 24.9421C-7.21382 24.9421 -180.058 197.786 -180.058 411C-180.058 624.214 -7.21382 797.058 206 797.058Z" stroke="white" stroke-miterlimit="10"/>
<path opacity="0.29" d="M206 845.065C445.727 845.065 640.065 650.727 640.065 411C640.065 171.273 445.727 -23.0649 206 -23.0649C-33.7274 -23.0649 -228.065 171.273 -228.065 411C-228.065 650.727 -33.7274 845.065 206 845.065Z" stroke="white" stroke-miterlimit="10"/>
</g>
</svg>
