<svg width="316" height="316" viewBox="0 0 316 316" fill="none" xmlns="http://www.w3.org/2000/svg">
<g clip-path="url(#clip0_5_916)">
<path d="M316 158C316.017 189.348 306.704 219.992 289.249 246.031C271.793 272.069 246.984 292.325 217.98 304.218C188.975 316.111 157.088 319.104 126.377 312.816C95.6656 306.528 67.5204 291.243 45.5243 268.908C31.0111 254.326 19.5189 237.024 11.7069 217.992C3.89476 198.96 -0.0836106 178.573 -0.000116352 158C-0.013254 148.79 0.802979 139.598 2.43869 130.534C3.48581 124.272 4.94058 118.084 6.79371 112.011C13.3815 90.5106 24.4666 70.6573 39.3132 53.7684C54.1598 36.8795 72.4285 23.3412 92.9069 14.052C97.1458 12.1357 101.385 10.3937 105.798 8.884C129.615 0.546751 155.083 -1.96456 180.07 1.56024C205.057 5.08503 228.836 14.5434 249.417 29.1438C269.999 43.7442 286.784 63.0619 298.368 85.4802C309.952 107.899 315.998 132.765 316 158Z" fill="url(#paint0_radial_5_916)"/>
<path style="mix-blend-mode:screen" opacity="0.92" d="M213.744 49.8213C241.965 85.5905 224.487 146.387 174.781 185.814C152.222 204.241 124.471 215.163 95.4039 217.054C91.5355 217.261 87.6588 217.261 83.7905 217.054C74.1037 216.57 64.6266 214.056 55.9738 209.675C47.321 205.293 39.6856 199.142 33.5626 191.621C30.5917 187.867 28.0772 183.774 26.072 179.427C24.6287 176.363 23.4627 173.176 22.588 169.904C16.0264 146.038 22.588 117.179 40.0081 91.1069C41.8081 88.4358 43.6663 85.7647 45.8147 83.1517C53.5843 73.0424 62.5756 63.9341 72.5836 56.0345C100.281 34.2013 132.102 23.6331 159.684 24.7945C165.934 24.998 172.145 25.874 178.207 27.4075C192.212 30.7289 204.714 38.6141 213.744 49.8213Z" fill="url(#paint1_linear_5_916)"/>
<g style="mix-blend-mode:multiply" opacity="0.34">
<path style="mix-blend-mode:multiply" opacity="0.34" d="M193.885 196.034C194.408 204.105 185.814 209.912 177.917 211.712C161.832 215.428 145.167 210.609 128.676 209.331C112.185 208.054 92.9069 212.177 85.4163 226.751C82.6871 232.093 81.8742 238.365 79.6096 244.171C76.6246 250.968 71.893 256.854 65.8959 261.229C59.8988 265.605 52.85 268.314 45.4663 269.082C25.5221 248.838 11.4001 223.596 4.58468 196.007C-2.2307 168.419 -1.48768 139.504 6.73564 112.301C12.4737 110.806 18.4985 110.8 24.2396 112.283C29.9808 113.767 35.2483 116.691 39.5434 120.779C49.2987 130.999 53.8279 147.722 67.4155 151.729C79.7838 155.329 92.5585 145.922 105.391 147.025C126.179 148.884 136.225 176.059 156.374 181.111C163.655 182.071 170.982 182.652 178.323 182.853C185.814 183.956 193.421 188.659 193.885 196.034Z" fill="url(#paint2_linear_5_916)"/>
</g>
<g style="mix-blend-mode:multiply" opacity="0.34">
<path style="mix-blend-mode:multiply" opacity="0.34" d="M178.323 194.815C178.788 201.318 170.775 205.905 163.342 207.357C148.303 210.376 132.683 206.486 117.353 205.441C102.023 204.396 83.9065 207.705 76.7062 219.493C74.6608 223.973 72.8771 228.568 71.3641 233.255C67.4736 241.849 48.1373 250.675 33.0399 254.972C11.5305 227.232 -0.0980453 193.102 -0.000118957 158C-0.0132566 148.79 0.802976 139.598 2.43869 130.534C2.43869 129.489 3.01936 128.502 3.36776 127.573C8.66954 126.387 14.1696 126.402 19.4647 127.618C24.7598 128.834 29.7157 131.219 33.969 134.599C43.1436 142.787 47.3825 156.2 60.041 159.394C71.6544 162.297 83.5581 154.748 95.578 155.619C114.972 157.129 124.611 178.846 143.251 182.911C149.871 184.362 156.955 183.375 163.749 184.304C170.542 185.233 177.859 188.95 178.323 194.815Z" fill="url(#paint3_linear_5_916)"/>
</g>
<g style="mix-blend-mode:multiply" opacity="0.34">
<path style="mix-blend-mode:multiply" opacity="0.34" d="M296.722 82.3388C287.837 79.2613 281.74 71.1319 274.366 65.2671C266.991 59.4024 254.913 56.1506 248.468 63.2348C243.01 69.0415 245.042 78.5064 243.823 86.4616C242.952 92.2682 237.203 104.869 230.758 106.378C220.654 108.817 223.615 101.791 222.454 95.52C220.654 85.068 221.99 69.6802 207.299 68.4028C203.757 68.0544 200.214 69.2157 196.672 68.8092C193.12 67.9922 189.841 66.2681 187.154 63.8052C184.467 61.3423 182.465 58.2248 181.343 54.757C179.227 47.7721 176.243 41.0806 172.458 34.8401C163.168 22.7041 145.515 22.0654 130.244 22.3557C117.237 22.3557 102.372 21.8912 92.7906 13.936C129.143 -2.48952 170.36 -4.56781 208.18 8.11777C245.999 20.8034 277.627 47.3152 296.722 82.3388Z" fill="url(#paint4_linear_5_916)"/>
</g>
<g style="mix-blend-mode:multiply" opacity="0.34">
<path style="mix-blend-mode:multiply" opacity="0.34" d="M278.721 56.3247C276.166 54.2343 273.611 51.9697 270.824 49.9954C263.972 45.1759 252.939 42.5048 247.074 48.3115C242.081 53.2472 243.881 60.912 242.777 67.4736C242.023 72.1189 236.68 82.5709 230.816 83.8484C221.525 85.8227 224.254 80.0741 223.151 74.9061C221.351 66.3122 222.686 53.5956 209.273 52.5504C206.021 52.5504 202.711 53.2472 199.46 52.8988C196.319 52.3282 193.377 50.9607 190.917 48.9272C188.456 46.8937 186.559 44.2624 185.407 41.2854C183.409 35.5277 180.656 30.0604 177.22 25.0267C168.684 15.0972 152.483 14.5746 138.489 14.8069C126.876 14.8069 114.275 14.4585 105.449 9.00021C135.723 -1.61309 168.508 -2.77042 199.454 5.68177C230.401 14.134 258.046 31.7961 278.721 56.3247Z" fill="url(#paint5_linear_5_916)"/>
</g>
<path style="mix-blend-mode:multiply" opacity="0.92" d="M316 158C315.961 192.191 304.836 225.448 284.295 252.781C263.753 280.114 234.902 300.049 202.07 309.594C169.239 319.14 134.197 317.783 102.202 305.725C70.2075 293.667 42.9854 271.56 24.6202 242.72C53.5922 263.925 88.9205 274.635 124.79 273.086C160.66 271.537 194.934 257.823 221.971 234.2C249.007 210.576 267.196 178.452 273.542 143.114C279.889 107.776 274.015 71.3306 256.888 39.7758C255.204 36.6982 253.404 33.9691 251.546 30.7173C271.516 45.3945 287.755 64.5621 298.951 86.6725C310.148 108.783 315.988 133.216 316 158Z" fill="url(#paint6_radial_5_916)"/>
<path style="mix-blend-mode:multiply" opacity="0.92" d="M316 158C315.931 191.196 305.416 223.528 285.945 250.414C266.475 277.3 239.036 297.376 207.518 307.797C175.999 318.217 142.001 318.453 110.341 308.472C78.6815 298.49 50.9663 278.797 31.1238 252.185C58.5879 277.868 94.3116 292.915 131.875 294.621C169.439 296.327 206.38 284.581 236.059 261.492C265.738 238.404 286.21 205.487 293.796 168.658C301.381 131.829 295.583 93.5014 277.444 60.5638C274.017 54.1403 270.136 47.9696 265.83 42.0985C281.719 56.8848 294.39 74.7873 303.052 94.6886C311.714 114.59 316.181 136.063 316.174 157.768L316 158Z" fill="url(#paint7_radial_5_916)"/>
</g>
<defs>
<radialGradient id="paint0_radial_5_916" cx="0" cy="0" r="1" gradientUnits="userSpaceOnUse" gradientTransform="translate(124.844 139.883) scale(187.033)">
<stop stop-color="#E5BF2C"/>
<stop offset="0.94" stop-color="#FF5E3B"/>
</radialGradient>
<linearGradient id="paint1_linear_5_916" x1="69.7731" y1="79.2043" x2="189.293" y2="170.735" gradientUnits="userSpaceOnUse">
<stop stop-color="#E5BF2C"/>
<stop offset="1" stop-color="#FF5E3B" stop-opacity="0"/>
</linearGradient>
<linearGradient id="paint2_linear_5_916" x1="-2179.91" y1="5277.89" x2="4295.73" y2="5277.89" gradientUnits="userSpaceOnUse">
<stop stop-color="#E5BF2C"/>
<stop offset="0.94" stop-color="#FF5E3B"/>
</linearGradient>
<linearGradient id="paint3_linear_5_916" x1="-1844.07" y1="4343.17" x2="3632.85" y2="4343.17" gradientUnits="userSpaceOnUse">
<stop stop-color="#E5BF2C"/>
<stop offset="0.94" stop-color="#FF5E3B"/>
</linearGradient>
<linearGradient id="paint4_linear_5_916" x1="6893.89" y1="6.32743" x2="6902.31" y2="711.49" gradientUnits="userSpaceOnUse">
<stop stop-color="#E5BF2C"/>
<stop offset="0.94" stop-color="#FF5E3B"/>
</linearGradient>
<linearGradient id="paint5_linear_5_916" x1="5821.68" y1="1.77602" x2="5826.59" y2="440.393" gradientUnits="userSpaceOnUse">
<stop stop-color="#E5BF2C"/>
<stop offset="0.94" stop-color="#FF5E3B"/>
</linearGradient>
<radialGradient id="paint6_radial_5_916" cx="0" cy="0" r="1" gradientUnits="userSpaceOnUse" gradientTransform="translate(7035.21 7741.5) scale(8569.48 8386.62)">
<stop stop-color="#E5BF2C"/>
<stop offset="1" stop-color="#FF5E3B" stop-opacity="0"/>
</radialGradient>
<radialGradient id="paint7_radial_5_916" cx="0" cy="0" r="1" gradientUnits="userSpaceOnUse" gradientTransform="translate(7083.27 7746.47) scale(8126.79 7802.9)">
<stop stop-color="#E5BF2C"/>
<stop offset="1" stop-color="#FF5E3B" stop-opacity="0"/>
</radialGradient>
<clipPath id="clip0_5_916">
<rect width="316" height="316" fill="white"/>
</clipPath>
</defs>
</svg>
