<svg width="316" height="316" viewBox="0 0 316 316" fill="none" xmlns="http://www.w3.org/2000/svg">
<g clip-path="url(#clip0_5_841)">
<path d="M316 158.029C316 160.293 316 162.499 316 164.706C316 166.331 316 168.015 316 169.582C316 171.15 316 172.543 315.594 173.936C315.187 175.33 315.129 178.058 314.839 180.148C314.839 180.671 314.839 181.252 314.839 181.89C314.839 183.806 314.2 185.78 313.794 187.696C313.387 189.612 313.155 190.889 312.807 192.398C312.458 193.908 312.11 195.649 311.703 197.217C310.368 202.268 308.858 207.203 307.058 212.021C306.651 213.299 306.187 214.46 305.722 215.679C305.258 216.898 303.98 219.859 303.051 221.949L300.554 227.406C299.625 229.322 298.638 231.18 297.593 233.212L295.735 236.579L293.819 239.83L291.148 244.01C289.986 245.81 288.709 247.61 287.489 249.41L284.702 253.183C283.831 254.344 282.96 255.505 282.031 256.608C279.476 259.744 276.863 262.879 274.018 265.839C272.798 267.117 271.637 268.394 270.418 269.613L269.953 270.078L266.179 273.677C263.45 276.173 260.662 278.612 257.817 280.876C256.366 282.095 254.972 283.198 253.462 284.301L249.223 287.32L244.694 290.397C243.126 291.442 241.5 292.429 239.933 293.358C234.518 296.558 228.936 299.465 223.209 302.066L220.422 303.228C214.762 305.672 208.942 307.728 203.002 309.382L200.563 310.078L198.299 310.717L192.492 312.052L189.24 312.691L185.234 313.504C180.704 314.258 176.059 314.897 171.414 315.245L166.13 315.652H164.504H158H151.555C148.942 315.652 146.387 315.652 143.89 315.129C141.393 314.607 139.825 314.723 138.083 314.491C136.225 314.491 134.425 314.026 132.625 313.678L130.128 313.504C129.199 313.504 128.328 313.504 127.515 312.981C127.326 313.043 127.123 313.043 126.934 312.981C124.728 312.517 122.521 312.11 120.373 311.53C118.224 310.949 116.076 310.485 113.985 309.846L108.701 308.22L105.508 307.117L102.953 306.189C99.0042 304.737 95.1718 303.17 91.3394 301.37L86.1134 298.815C84.3133 297.945 82.4552 296.958 80.6551 295.913L75.7194 293.01C74.9065 292.487 73.9774 291.965 73.1645 291.384C72.2982 290.896 71.4642 290.353 70.6676 289.759C69.1578 288.772 67.6481 287.785 66.1964 286.682C64.7448 285.579 62.7124 284.185 60.9704 282.792L56.267 279.018C54.8734 277.799 53.3636 276.522 52.0281 275.245L47.8473 271.413L47.4408 271.006C46.1634 269.787 44.944 268.51 43.7245 267.233C42.5051 265.956 41.2277 264.62 40.0663 263.285C38.905 261.95 37.6856 260.614 36.5823 259.221C35.479 257.828 34.3177 256.492 33.2144 255.041C8.4967 223.269 -3.15823 183.262 0.629664 143.189C4.41755 103.116 23.3625 65.9997 53.5959 39.4202C56.3251 37.0399 59.4026 34.6596 62.1317 32.5115C66.2513 29.3466 70.5348 26.401 74.9645 23.6869C75.6033 23.2225 76.3001 22.8161 76.9969 22.4097L82.1068 19.4488L85.3004 17.7652L87.1005 16.7202C93.4712 13.4938 100.07 10.7385 106.843 8.47621L109.747 7.48925C117.771 4.91905 125.983 2.97797 134.309 1.68363L138.316 1.16112L143.658 0.580562L150.51 0C152.987 0 155.484 0 158 0C160.149 0 162.239 0 164.388 0C166.536 0 168.684 0 170.775 0.348337L177.162 0.986956L183.375 1.91586C187.672 2.55447 191.911 3.48337 196.092 4.47033C202.243 6.03625 208.293 7.97505 214.209 10.276C220.165 12.5426 225.982 15.1597 231.629 18.1135C233.197 19.0424 234.765 19.8552 236.39 20.7261L237.261 21.2486L238.249 21.8291L241.21 23.5708C241.739 23.8585 242.244 24.1886 242.72 24.5578C243.52 25.04 244.296 25.5632 245.042 26.1253L248.062 28.0992L253.23 31.8729L253.985 32.3954L257.062 34.7757C259.85 36.9818 262.521 39.3041 265.134 41.8005L268.792 45.3419C270.069 46.5611 271.231 47.7803 272.392 48.9994C273.553 50.2186 275.237 52.0184 276.631 53.5859C277.082 54.0096 277.49 54.4763 277.85 54.9792C278.345 55.494 278.811 56.0368 279.244 56.6048C281.334 59.0432 283.25 61.4815 285.051 64.036C286.154 65.6035 287.315 67.2291 288.36 68.8547C290.277 71.6414 292.135 74.6603 294.167 77.447C295.328 79.3822 296.432 81.3174 297.477 83.2526C297.804 83.7233 298.077 84.2297 298.29 84.7621C299.374 86.7747 300.419 88.8647 301.425 91.0322C302.877 94.1091 304.271 97.3022 305.49 100.495C306.129 102.121 306.709 103.746 307.29 105.372C307.871 106.998 308.219 108.101 308.684 109.494C309.148 110.887 309.381 111.584 309.671 112.687C311.33 118.74 312.629 124.885 313.561 131.091C313.561 132.136 313.91 133.181 314.026 134.284C314.026 135.329 314.374 136.432 314.49 137.535C314.49 137.535 314.49 137.942 314.49 138.116C314.49 138.29 314.49 139.683 314.49 140.496C314.49 141.309 314.49 142.064 314.49 142.818V144.676C314.49 145.141 314.49 145.605 314.49 146.069C315.884 150.133 316 154.081 316 158.029Z" fill="url(#paint0_radial_5_841)"/>
<path style="mix-blend-mode:screen" d="M227.448 86.6199C227.913 87.6649 228.319 88.7099 228.725 89.7549C229.048 90.51 229.32 91.2858 229.538 92.0772C229.538 92.7738 230.003 93.5286 230.235 94.2252C230.467 94.9219 230.816 96.2572 231.048 97.3022V98.115C231.048 99.102 231.513 100.147 231.687 101.134L232.035 103.572C232.035 104.443 232.035 105.256 232.035 106.069C232.277 108.751 232.374 111.445 232.326 114.139C232.326 114.835 232.326 115.474 232.326 116.17C232.326 116.867 232.326 118.551 232.326 119.77L232.268 123.079C232.268 124.182 231.861 125.285 231.629 126.446C231.397 127.608 231.629 127.782 231.222 128.478C230.816 129.175 231.222 129.814 230.758 130.51L230.061 133.123L229.016 136.548L228.145 138.987C227.874 139.799 227.583 140.554 227.274 141.251C226.403 143.399 225.474 145.489 224.429 147.637L223.035 150.308V150.656L221.583 153.268C220.48 155.126 219.319 156.984 218.099 159.074L216.241 161.745C216.241 161.745 215.022 163.428 214.383 164.241L212.293 166.854L210.144 169.408C207.589 172.311 204.918 175.214 202.073 177.768L200.679 179.045C197.829 181.621 194.844 184.044 191.737 186.302L190.401 187.289L189.24 188.16L186.162 190.192L184.362 191.411L182.562 192.514C180.065 194.024 177.452 195.533 174.781 196.869L171.762 198.436L170.833 198.843L167 200.584L163.168 202.21L158.581 203.951L154.922 205.171C153.82 205.58 152.695 205.929 151.555 206.216L150.161 206.622L148.535 207.087H148.187L144.064 208.132L139.361 209.002C138.199 209.002 137.038 209.467 135.935 209.583L133.844 209.931H132.16C129.547 210.28 126.934 210.512 124.379 210.686H120.779C119.56 210.686 118.224 210.686 117.005 210.686H113.463H111.663H109.863H106.611L102.72 210.222L99.2363 209.641L95.9846 209.002L92.907 208.073H92.5586L89.5972 207.319L86.6939 206.39L83.7905 205.461L81.0033 204.358C72.4753 200.986 64.6116 196.131 57.7765 190.018C50.9292 183.898 45.4826 176.373 41.8082 167.957C32.2271 146.011 36.0015 121.047 49.2988 99.2181C50.4021 97.3603 51.6215 95.5605 52.8989 93.8188C54.699 91.3224 56.6733 88.826 58.7056 86.4457C58.7056 86.0393 59.3444 85.691 59.6347 85.3426C59.925 84.9943 61.3186 83.4848 62.0735 82.6721C62.5485 82.1046 63.0524 81.562 63.5832 81.0465L64.5123 80.0595C67.6556 76.9176 70.9704 73.9522 74.4417 71.1769L76.0096 69.9577C80.2098 66.674 84.6336 63.6866 89.2488 61.0171L91.5134 59.7398C92.5006 59.1593 93.4877 58.5787 94.5329 58.0562L98.3653 56.1404L102.72 54.1665C103.998 53.5859 105.217 53.0634 106.495 52.5989C107.772 52.1345 109.05 51.5539 110.327 51.0895L114.218 49.7542L118.05 48.535C120.721 47.7803 123.392 47.0836 126.063 46.503C129.898 45.6345 133.774 44.9564 137.677 44.4711C141.532 44.0062 145.408 43.7349 149.29 43.6583H157.129H158.813H160.961L164.794 44.0647H165.316L167.639 44.355C169.671 44.7033 171.762 45.0516 173.794 45.5741L176.698 46.2708L179.543 47.0255L182.969 48.0705L183.956 48.3608L185.117 48.8253C186.801 49.4058 188.427 50.0445 190.053 50.7411L193.014 52.0764C194.698 52.8892 196.324 53.7601 198.008 54.689C199.086 55.272 200.133 55.9115 201.144 56.6048L201.957 57.0693C203.002 57.7079 203.989 58.4626 205.034 59.1593C206.079 59.856 207.996 61.3654 209.331 62.5266L211.422 64.3263L213.047 65.8938L214.267 67.113C216.598 69.4711 218.734 72.0145 220.654 74.7184C221.002 75.1354 221.313 75.5822 221.583 76.0536L222.512 77.447L223.151 78.492C223.367 78.8277 223.561 79.1767 223.732 79.537L224.254 80.3498C224.254 80.3498 224.254 80.7562 224.545 80.9304C225.764 83.0204 226.461 84.8201 227.448 86.6199Z" fill="url(#paint1_radial_5_841)"/>
<path style="mix-blend-mode:multiply" opacity="0.35" d="M316 158.029C316 160.293 316 162.499 316 164.706C316 166.331 316 168.015 316 169.582C316 171.15 316 172.543 315.594 173.936C315.187 175.33 315.129 178.058 314.839 180.148C314.839 180.671 314.839 181.252 314.839 181.89C314.839 183.806 314.2 185.78 313.793 187.696C313.387 189.612 313.155 190.831 312.806 192.398C312.458 193.966 312.11 195.649 311.703 197.217C310.368 202.268 308.858 207.203 307.058 212.021C306.651 213.299 306.187 214.46 305.722 215.679C305.258 216.898 303.98 219.859 303.051 221.949L300.554 227.406C299.625 229.322 298.638 231.18 297.593 233.212L295.735 236.579L293.818 239.83L291.147 244.01C289.986 245.81 288.709 247.61 287.489 249.41L284.702 253.183C283.831 254.344 282.96 255.505 282.031 256.609C279.476 259.744 276.863 262.879 274.018 265.839C272.798 267.117 271.637 268.394 270.417 269.613L269.953 270.078L266.179 273.677C263.449 276.173 260.662 278.612 257.817 280.876C256.365 282.095 254.972 283.198 253.462 284.301L249.223 287.32L244.694 290.397C243.126 291.442 241.5 292.429 239.932 293.358C234.518 296.558 228.936 299.465 223.209 302.067L220.422 303.228C214.762 305.672 208.941 307.728 203.002 309.382L200.563 310.078L198.298 310.717L192.492 312.052L189.24 312.691L185.233 313.504C180.704 314.258 176.059 314.897 171.413 315.245L166.129 315.652H164.503H158H151.555C148.942 315.652 146.387 315.652 143.89 315.129C141.393 314.607 139.825 314.723 138.083 314.491C136.225 314.491 134.425 314.026 132.625 313.678L130.128 313.504C129.199 313.504 128.328 313.504 127.515 312.981C127.326 313.043 127.123 313.043 126.934 312.981C124.728 312.517 122.521 312.11 120.373 311.53C118.224 310.949 116.076 310.485 113.985 309.846L108.701 308.22L105.508 307.117L102.953 306.189C99.004 304.737 95.1716 303.17 91.3392 301.37L86.1132 298.815C84.3131 297.945 82.455 296.958 80.6549 295.913L75.7192 293.01C74.9063 292.487 73.9772 291.965 73.1643 291.384C72.298 290.896 71.464 290.353 70.6674 289.759C69.1577 288.772 67.6479 287.785 66.1962 286.682C64.7446 285.579 62.7122 284.185 60.9702 282.792L56.2668 279.018C54.8732 277.799 53.3635 276.522 52.0279 275.245L47.8471 271.413L47.4406 271.006C46.1632 269.787 44.9438 268.51 43.7244 267.233C42.505 265.956 41.2275 264.62 40.0661 263.285C38.9048 261.95 37.6854 260.614 36.5821 259.221C35.4789 257.828 34.2014 256.376 33.0981 254.983C57.142 268.713 84.3716 275.887 112.061 275.787C139.75 275.687 166.927 268.316 190.87 254.412C214.814 240.508 234.685 220.559 248.492 196.563C262.3 172.566 269.56 145.364 269.546 117.68C269.551 101.933 267.182 86.2759 262.52 71.235C261.243 67.113 259.849 63.1071 258.282 59.2174C252.798 45.5091 245.43 32.6322 236.39 20.9583L237.261 21.4808L238.248 22.0614L241.21 23.8031C241.739 24.0907 242.244 24.4208 242.72 24.79C243.52 25.2722 244.296 25.7954 245.042 26.3575L248.062 28.3314L253.23 32.1051L253.985 32.6276C257.856 35.6465 261.572 38.7816 265.133 42.0327L268.792 45.5741C270.069 46.7933 271.23 48.0125 272.392 49.2317C273.553 50.4509 275.237 52.2506 276.631 53.8181L277.792 55.2115L279.244 56.837C281.276 59.3335 283.25 61.8299 285.05 64.3844C286.154 65.8938 287.315 67.4613 288.36 69.0289C290.276 71.8156 292.135 74.8345 294.167 77.6212C295.328 79.5564 296.431 81.4916 297.477 83.4268C297.804 83.8974 298.077 84.4039 298.29 84.9363C299.374 86.9489 300.419 89.0389 301.425 91.2063C302.877 94.2833 304.271 97.4764 305.49 100.669C306.129 102.295 306.709 103.921 307.29 105.546C307.871 107.172 308.219 108.275 308.684 109.668C309.148 111.062 309.38 111.758 309.671 112.861C311.323 118.856 312.622 124.943 313.561 131.091C313.561 132.136 313.91 133.181 314.026 134.284C314.026 135.329 314.374 136.432 314.49 137.535C314.49 137.535 314.49 137.942 314.49 138.116C314.49 138.29 314.49 139.683 314.49 140.496C314.49 141.309 314.49 142.064 314.49 142.818C314.49 143.573 314.49 144.966 314.781 146.069C315.884 150.133 316 154.081 316 158.029Z" fill="url(#paint2_radial_5_841)"/>
<g style="mix-blend-mode:multiply">
<path style="mix-blend-mode:multiply" d="M284.934 66.0099C282.612 72.2219 272.159 71.3511 262.52 71.0608C257.269 70.2478 251.895 71.1433 247.191 73.6153C243.939 76.2278 242.255 80.582 238.829 83.0204C231.629 88.3035 221.874 83.0204 213.164 81.2787C206.288 80.0364 199.195 81.0291 192.925 84.1113C186.655 87.1935 181.538 92.203 178.323 98.4053C173.33 108.623 172.517 123.195 161.368 126.621C158.147 127.374 154.774 127.159 151.675 126.002C148.575 124.845 145.887 122.798 143.948 120.118C140.182 114.609 137.865 108.239 137.212 101.598C136.978 97.3329 135.571 93.2147 133.147 89.6969C127.341 83.3107 117.237 86.0393 108.933 88.0713C100.63 90.1033 88.9004 89.0582 87.4487 80.6981C87.1003 78.7823 87.4487 76.8664 87.4487 74.8925C86.4035 66.5324 76.4741 63.2813 68.4028 60.4946C48.0794 54.0503 51.8537 43.4261 61.609 34.079C65.8452 30.1638 70.4324 26.6463 75.3128 23.5708C75.9515 23.1064 76.6483 22.7 77.3451 22.2936L82.455 19.3327L85.6487 17.6491L87.1003 16.7202C93.4711 13.4938 100.07 10.7385 106.843 8.47621L109.746 7.48925C117.771 4.91905 125.983 2.97797 134.309 1.68363L138.315 1.16112L143.657 0.580562L150.509 0C152.987 0 155.484 0 158 0C160.148 0 162.239 0 164.387 0C166.536 0 168.684 0 170.775 0.348337L177.162 0.986956L183.375 1.91586C187.672 2.55447 191.911 3.48337 196.092 4.47033C202.243 6.03625 208.293 7.97505 214.209 10.276C220.165 12.5426 225.982 15.1597 231.629 18.1135C233.197 19.0424 234.764 19.8552 236.39 20.7261L237.261 21.2486L238.248 21.8291L242.72 24.5578C243.52 25.04 244.296 25.5632 245.042 26.1253L248.062 28.0992L253.23 31.8729L253.985 32.3954L257.062 34.7757C259.849 36.9818 262.52 39.3041 265.133 41.8005L268.792 45.3419C270.069 46.5611 271.23 47.7803 272.392 48.9994C273.553 50.2186 275.237 52.0184 276.631 53.5859C277.081 54.0096 277.49 54.4763 277.85 54.9792C278.345 55.494 278.811 56.0368 279.244 56.6048C281.334 59.0432 283.25 61.4815 285.05 64.036C285.218 64.6901 285.177 65.38 284.934 66.0099Z" fill="url(#paint3_radial_5_841)"/>
</g>
<g style="mix-blend-mode:multiply" opacity="0.7">
<path style="mix-blend-mode:multiply" opacity="0.7" d="M277.85 55.0373C275.469 59.7398 266.759 59.2754 258.34 59.0432C252.997 58.2149 247.529 58.9613 242.603 61.1913C239.526 63.8618 238.074 67.4613 234.706 69.6675C227.971 74.312 218.738 69.6675 210.55 68.0999C204.18 66.9207 197.599 67.7512 191.721 70.4764C185.843 73.2017 180.958 77.6868 177.743 83.3107C173.039 92.4836 171.936 105.43 161.832 108.507C158.816 109.218 155.659 109.048 152.736 108.019C149.813 106.99 147.247 105.145 145.341 102.701C141.792 97.8939 139.605 92.2178 139.012 86.2715C138.824 82.3737 137.491 78.6178 135.18 75.4731C129.838 69.6675 120.198 72.2219 112.417 74.0797C104.637 75.9375 93.6038 74.9506 92.2102 67.4613C91.9199 65.7777 92.2102 63.978 92.2102 62.2943C91.2231 54.8631 81.8743 51.7861 74.3256 49.522C61.2025 45.6322 58.7637 39.8846 61.4928 34.0209C61.7014 33.4391 61.9949 32.8913 62.3638 32.3954C66.4834 29.2305 70.7669 26.2849 75.1966 23.5708C75.8353 23.1064 76.5321 22.7 77.2289 22.2936L82.3388 19.3327L85.5325 17.6491L87.1003 16.7202C93.471 13.4938 100.07 10.7385 106.843 8.47621L109.746 7.48925C117.771 4.91905 125.983 2.97797 134.309 1.68363L138.315 1.16112L143.657 0.580562L150.509 0C152.987 0 155.484 0 158 0C160.148 0 162.239 0 164.387 0C166.536 0 168.684 0 170.775 0.348337L177.162 0.986956L183.375 1.91586C187.672 2.55447 191.911 3.48337 196.092 4.47033C202.243 6.03625 208.293 7.97505 214.209 10.276C220.165 12.5426 225.982 15.1597 231.629 18.1135C233.197 19.0424 234.764 19.8552 236.39 20.7261L237.261 21.2486L238.248 21.8291L241.21 23.5708C241.739 23.8585 242.244 24.1886 242.72 24.5578C243.52 25.04 244.295 25.5632 245.042 26.1253L248.062 28.0992L253.23 31.8729L253.985 32.3954L257.062 34.7757C259.849 36.9818 262.52 39.3041 265.133 41.8005L268.792 45.3419C270.069 46.5611 271.23 47.7803 272.392 48.9994C273.553 50.2186 275.237 52.0184 276.631 53.5859C277.084 54.0279 277.493 54.5141 277.85 55.0373Z" fill="url(#paint4_radial_5_841)"/>
</g>
<g style="mix-blend-mode:multiply">
<path style="mix-blend-mode:multiply" d="M316 158.029C316.011 188.213 307.369 217.767 291.099 243.192C274.829 268.617 251.611 288.847 224.196 301.486V301.08C228.784 291.036 233.429 281.05 238.074 271.006C239.81 267.679 241.061 264.121 241.791 260.44C242.05 255.558 241.875 250.662 241.268 245.81C240.947 243.331 241.21 240.812 242.037 238.453C242.864 236.094 244.231 233.961 246.029 232.225C248.236 230.425 250.965 229.67 253.288 228.103C260.604 223.226 261.011 212.602 259.094 204.068C256.481 192.863 248.41 169.234 263.74 163.428C269.837 161.106 276.689 165.344 283.076 163.951C291.438 162.151 294.689 152.34 300.496 146.128C302.185 144.125 304.572 142.838 307.174 142.528C309.634 142.651 312.036 143.326 314.2 144.502C314.596 144.652 315.004 144.769 315.419 144.85C315.826 149.263 316 153.559 316 158.029Z" fill="url(#paint5_radial_5_841)"/>
</g>
<g style="mix-blend-mode:multiply">
<path style="mix-blend-mode:multiply" d="M210.957 306.943C171.401 320.927 127.909 318.638 90.0402 300.578C52.1712 282.518 23.0228 250.165 9.00037 210.628C11.029 210.939 12.9914 211.587 14.8071 212.544C20.8333 216.36 26.0435 221.333 30.1367 227.174C34.1524 232.962 39.8476 237.38 46.4535 239.83C55.9184 242.211 67.5899 237.624 74.674 244.243C78.3903 247.726 79.842 253.764 84.6615 255.854C89.4811 257.944 95.8684 252.428 96.2749 246.739C96.2128 243.891 95.5557 241.087 94.3457 238.507C93.1357 235.928 91.3996 233.629 89.2488 231.76C85.0093 227.979 81.1222 223.821 77.6354 219.336C75.9535 217.001 75.0102 214.215 74.9274 211.338C74.8446 208.461 75.6261 205.625 77.1709 203.197C78.8892 201.304 81.1494 199.988 83.6433 199.427C86.1373 198.866 88.7436 199.088 91.107 200.062C95.8161 202.15 99.6972 205.745 102.14 210.28C106.611 217.769 108.527 226.477 112.476 234.199C114.105 238.246 116.782 241.787 120.23 244.459C123.679 247.132 127.776 248.84 132.102 249.41C139.709 249.41 148.825 244.649 154.11 250.222C157.013 253.299 156.839 258.002 157.884 261.834C160.961 273.851 173.794 280.005 185.175 285.056C196.556 290.107 208.054 296.087 210.957 306.943Z" fill="url(#paint6_radial_5_841)"/>
</g>
</g>
<defs>
<radialGradient id="paint0_radial_5_841" cx="0" cy="0" r="1" gradientUnits="userSpaceOnUse" gradientTransform="translate(110.327 95.2122) scale(199.169 199.133)">
<stop stop-color="#CBCFFF"/>
<stop offset="0.99" stop-color="#B0B1FF"/>
</radialGradient>
<radialGradient id="paint1_radial_5_841" cx="0" cy="0" r="1" gradientUnits="userSpaceOnUse" gradientTransform="translate(83.6163 64.4424) scale(171.588 171.556)">
<stop stop-color="#CBCFFF"/>
<stop offset="0.99" stop-color="#B0B1FF"/>
</radialGradient>
<radialGradient id="paint2_radial_5_841" cx="0" cy="0" r="1" gradientUnits="userSpaceOnUse" gradientTransform="translate(6457.8 5590.66) scale(8891.61 9262.21)">
<stop stop-color="#CBCFFF"/>
<stop offset="0.99" stop-color="#B0B1FF"/>
</radialGradient>
<radialGradient id="paint3_radial_5_841" cx="0" cy="0" r="1" gradientUnits="userSpaceOnUse" gradientTransform="translate(6800.58 1392.6) scale(3726.41 2045.7)">
<stop stop-color="#CBCFFF"/>
<stop offset="0.99" stop-color="#B0B1FF"/>
</radialGradient>
<radialGradient id="paint4_radial_5_841" cx="0" cy="0" r="1" gradientUnits="userSpaceOnUse" gradientTransform="translate(6389.83 1022.94) scale(3221.18 1614.47)">
<stop stop-color="#CBCFFF"/>
<stop offset="0.99" stop-color="#B0B1FF"/>
</radialGradient>
<radialGradient id="paint5_radial_5_841" cx="0" cy="0" r="1" gradientUnits="userSpaceOnUse" gradientTransform="translate(4494.91 6221.08) scale(1026.37 1777.15)">
<stop stop-color="#CBCFFF"/>
<stop offset="0.99" stop-color="#B0B1FF"/>
</radialGradient>
<radialGradient id="paint6_radial_5_841" cx="0" cy="0" r="1" gradientUnits="userSpaceOnUse" gradientTransform="translate(3834.06 5382.4) scale(2869.8 1660.75)">
<stop stop-color="#CBCFFF"/>
<stop offset="0.99" stop-color="#B0B1FF"/>
</radialGradient>
<clipPath id="clip0_5_841">
<rect width="316" height="316" fill="white"/>
</clipPath>
</defs>
</svg>
