<svg width="411" height="731" viewBox="0 0 411 731" fill="none" xmlns="http://www.w3.org/2000/svg">
<g clip-path="url(#clip0_10_2)">
<path d="M220.614 187.919C220.853 187.919 221.088 187.992 221.286 188.127C221.484 188.262 221.637 188.453 221.726 188.676C221.814 188.899 221.833 189.144 221.781 189.378C221.729 189.612 221.608 189.826 221.434 189.99C221.259 190.155 221.04 190.264 220.803 190.302C220.566 190.34 220.324 190.307 220.106 190.205C219.889 190.104 219.707 189.94 219.584 189.734C219.46 189.528 219.402 189.29 219.415 189.05C219.433 188.744 219.567 188.456 219.789 188.246C220.012 188.036 220.307 187.919 220.614 187.919V187.919Z" fill="white"/>
<path d="M105.476 330.207C105.713 330.207 105.944 330.278 106.141 330.409C106.338 330.541 106.492 330.728 106.583 330.948C106.673 331.167 106.697 331.408 106.651 331.64C106.604 331.873 106.49 332.087 106.323 332.254C106.155 332.422 105.942 332.536 105.709 332.582C105.477 332.629 105.236 332.605 105.017 332.514C104.798 332.423 104.611 332.27 104.479 332.073C104.348 331.875 104.277 331.643 104.277 331.406C104.276 331.248 104.306 331.092 104.365 330.946C104.425 330.8 104.513 330.667 104.625 330.555C104.736 330.444 104.869 330.355 105.015 330.296C105.161 330.236 105.318 330.206 105.476 330.207Z" fill="white"/>
<path d="M47.4883 6.10828C47.7252 6.10828 47.9569 6.17861 48.1539 6.31036C48.351 6.44211 48.5045 6.62937 48.5952 6.84847C48.6859 7.06757 48.7096 7.30864 48.6634 7.54123C48.6172 7.77382 48.5031 7.98746 48.3355 8.15515C48.1679 8.32284 47.9544 8.43704 47.722 8.4833C47.4896 8.52957 47.2487 8.50584 47.0297 8.41509C46.8108 8.32434 46.6237 8.17068 46.492 7.9735C46.3604 7.77632 46.2901 7.54447 46.2901 7.30732C46.2901 6.98931 46.4163 6.68436 46.641 6.45949C46.8657 6.23463 47.1705 6.10828 47.4883 6.10828V6.10828Z" fill="white"/>
<path d="M58.1249 507.776C58.3619 507.776 58.5936 507.847 58.7906 507.978C58.9877 508.11 59.1412 508.297 59.2319 508.517C59.3226 508.736 59.3463 508.977 59.3001 509.209C59.2539 509.442 59.1398 509.656 58.9722 509.823C58.8046 509.991 58.5911 510.105 58.3587 510.151C58.1263 510.198 57.8854 510.174 57.6664 510.083C57.4475 509.992 57.2604 509.839 57.1287 509.642C56.997 509.444 56.9268 509.213 56.9268 508.975C56.9253 508.818 56.9552 508.661 57.0149 508.515C57.0746 508.369 57.1628 508.236 57.2743 508.124C57.3859 508.013 57.5186 507.924 57.6646 507.865C57.8107 507.805 57.9672 507.775 58.1249 507.776V507.776Z" fill="white"/>
<path d="M58.1588 608.144C58.1588 607.482 57.6224 606.945 56.9607 606.945C56.2989 606.945 55.7625 607.482 55.7625 608.144C55.7625 608.806 56.2989 609.343 56.9607 609.343C57.6224 609.343 58.1588 608.806 58.1588 608.144Z" fill="white"/>
<path d="M192.637 515.129C192.875 515.129 193.107 515.199 193.304 515.332C193.501 515.464 193.655 515.652 193.745 515.872C193.836 516.091 193.859 516.333 193.812 516.566C193.764 516.799 193.649 517.013 193.48 517.18C193.312 517.347 193.097 517.46 192.864 517.505C192.631 517.55 192.39 517.525 192.171 517.432C191.952 517.34 191.766 517.184 191.636 516.986C191.505 516.787 191.437 516.554 191.439 516.317C191.439 516.16 191.47 516.004 191.531 515.859C191.591 515.715 191.679 515.583 191.791 515.473C191.902 515.362 192.034 515.275 192.18 515.216C192.325 515.157 192.48 515.127 192.637 515.129V515.129Z" fill="white"/>
<path d="M229.939 623.72C230.257 623.72 230.562 623.846 230.786 624.071C231.011 624.296 231.137 624.601 231.137 624.919C231.137 625.237 231.011 625.542 230.786 625.767C230.562 625.992 230.257 626.118 229.939 626.118C229.621 626.118 229.317 625.992 229.092 625.767C228.867 625.542 228.741 625.237 228.741 624.919C228.741 624.601 228.867 624.296 229.092 624.071C229.317 623.846 229.621 623.72 229.939 623.72V623.72Z" fill="white"/>
<path d="M360.54 604.49C360.777 604.49 361.009 604.561 361.206 604.692C361.403 604.824 361.557 605.011 361.647 605.23C361.738 605.45 361.762 605.691 361.716 605.923C361.669 606.156 361.555 606.369 361.388 606.537C361.22 606.705 361.007 606.819 360.774 606.865C360.542 606.912 360.301 606.888 360.082 606.797C359.863 606.706 359.676 606.553 359.544 606.355C359.412 606.158 359.342 605.926 359.342 605.689C359.342 605.371 359.468 605.066 359.693 604.841C359.918 604.617 360.223 604.49 360.54 604.49V604.49Z" fill="white"/>
<path d="M17.6469 409.705C17.8843 409.705 18.1164 409.776 18.3137 409.908C18.511 410.04 18.6645 410.228 18.7549 410.448C18.8452 410.668 18.8683 410.909 18.8211 411.142C18.774 411.375 18.6587 411.589 18.49 411.756C18.3213 411.923 18.1068 412.036 17.8736 412.081C17.6405 412.126 17.3992 412.101 17.1805 412.009C16.9617 411.916 16.7754 411.761 16.6451 411.562C16.5148 411.363 16.4465 411.13 16.4487 410.893C16.4517 410.577 16.5792 410.275 16.8036 410.052C17.028 409.83 17.3311 409.705 17.6469 409.705V409.705Z" fill="white"/>
<path d="M28.5774 590.916C28.8172 590.917 29.0514 590.989 29.2496 591.124C29.4478 591.259 29.601 591.451 29.6894 591.674C29.7777 591.897 29.7972 592.141 29.7452 592.375C29.6932 592.61 29.5721 592.823 29.3977 592.988C29.2233 593.152 29.0035 593.261 28.7668 593.299C28.5301 593.337 28.2874 593.304 28.07 593.202C27.8526 593.101 27.6705 592.937 27.5474 592.731C27.4243 592.525 27.3657 592.287 27.3793 592.048C27.3966 591.741 27.5304 591.454 27.7533 591.243C27.9761 591.033 28.2711 590.916 28.5774 590.916V590.916Z" fill="white"/>
<path d="M170.426 611.13C170.744 611.13 171.048 611.256 171.273 611.481C171.498 611.706 171.624 612.011 171.624 612.329C171.624 612.647 171.498 612.952 171.273 613.177C171.048 613.402 170.744 613.528 170.426 613.528C170.108 613.528 169.803 613.402 169.579 613.177C169.354 612.952 169.228 612.647 169.228 612.329C169.228 612.011 169.354 611.706 169.579 611.481C169.803 611.256 170.108 611.13 170.426 611.13V611.13Z" fill="white"/>
<path d="M344.184 609.343C344.184 608.681 343.648 608.144 342.986 608.144C342.324 608.144 341.788 608.681 341.788 609.343C341.788 610.005 342.324 610.542 342.986 610.542C343.648 610.542 344.184 610.005 344.184 609.343Z" fill="white"/>
<path d="M402.171 624.851C402.408 624.851 402.64 624.921 402.837 625.053C403.034 625.185 403.188 625.372 403.278 625.591C403.369 625.81 403.393 626.051 403.347 626.284C403.3 626.517 403.186 626.73 403.019 626.898C402.851 627.066 402.638 627.18 402.405 627.226C402.173 627.272 401.932 627.249 401.713 627.158C401.494 627.067 401.307 626.913 401.175 626.716C401.044 626.519 400.973 626.287 400.973 626.05C400.973 625.732 401.099 625.427 401.324 625.202C401.549 624.977 401.854 624.851 402.171 624.851V624.851Z" fill="white"/>
<path d="M67.9929 483.502C67.9929 482.84 67.4565 482.303 66.7948 482.303C66.133 482.303 65.5966 482.84 65.5966 483.502C65.5966 484.164 66.133 484.701 66.7948 484.701C67.4565 484.701 67.9929 484.164 67.9929 483.502Z" fill="white"/>
<path d="M111.455 346.994C111.693 346.994 111.925 347.064 112.122 347.197C112.319 347.329 112.473 347.517 112.563 347.737C112.653 347.956 112.677 348.198 112.629 348.431C112.582 348.664 112.467 348.877 112.298 349.045C112.13 349.212 111.915 349.325 111.682 349.37C111.449 349.415 111.207 349.39 110.989 349.297C110.77 349.205 110.584 349.049 110.453 348.851C110.323 348.652 110.255 348.419 110.257 348.181C110.249 348.022 110.274 347.863 110.332 347.715C110.389 347.566 110.477 347.431 110.59 347.319C110.703 347.207 110.839 347.12 110.988 347.064C111.137 347.008 111.296 346.984 111.455 346.994V346.994Z" fill="white"/>
<path d="M351.249 323.092C351.486 323.092 351.717 323.163 351.915 323.294C352.112 323.426 352.265 323.613 352.356 323.833C352.447 324.052 352.47 324.293 352.424 324.525C352.378 324.758 352.264 324.972 352.096 325.139C351.928 325.307 351.715 325.421 351.483 325.467C351.25 325.514 351.009 325.49 350.79 325.399C350.571 325.308 350.384 325.155 350.253 324.958C350.121 324.76 350.051 324.529 350.051 324.291C350.051 323.973 350.177 323.668 350.402 323.444C350.626 323.219 350.931 323.092 351.249 323.092V323.092Z" fill="white"/>
<path d="M399.131 48.1986C399.368 48.1986 399.599 48.269 399.796 48.4007C399.993 48.5325 400.147 48.7197 400.238 48.9388C400.328 49.1579 400.352 49.399 400.306 49.6316C400.26 49.8641 400.146 50.0778 399.978 50.2455C399.81 50.4131 399.597 50.5273 399.364 50.5736C399.132 50.6199 398.891 50.5961 398.672 50.5054C398.453 50.4146 398.266 50.2609 398.134 50.0637C398.003 49.8666 397.933 49.6348 397.933 49.3977C397.933 49.0797 398.059 48.7746 398.283 48.5498C398.508 48.3249 398.813 48.1986 399.131 48.1986V48.1986Z" fill="white"/>
<path d="M306.487 541.666C306.727 541.666 306.961 541.739 307.159 541.874C307.357 542.009 307.51 542.2 307.599 542.423C307.687 542.646 307.706 542.891 307.654 543.125C307.602 543.359 307.481 543.572 307.307 543.737C307.133 543.902 306.913 544.01 306.676 544.048C306.439 544.087 306.197 544.053 305.979 543.952C305.762 543.851 305.58 543.686 305.457 543.481C305.334 543.275 305.275 543.037 305.289 542.797C305.303 542.49 305.436 542.2 305.66 541.99C305.883 541.779 306.18 541.663 306.487 541.666Z" fill="white"/>
<path d="M361.739 413.144C362.056 413.144 362.361 413.27 362.586 413.495C362.81 413.72 362.937 414.025 362.937 414.343C362.937 414.661 362.81 414.966 362.586 415.191C362.361 415.415 362.056 415.542 361.739 415.542C361.421 415.542 361.116 415.415 360.891 415.191C360.667 414.966 360.54 414.661 360.54 414.343C360.54 414.025 360.667 413.72 360.891 413.495C361.116 413.27 361.421 413.144 361.739 413.144Z" fill="white"/>
<path d="M368.577 333.16C368.577 332.497 368.041 331.961 367.379 331.961C366.717 331.961 366.181 332.497 366.181 333.16C366.181 333.822 366.717 334.359 367.379 334.359C368.041 334.359 368.577 333.822 368.577 333.16Z" fill="white"/>
<path d="M388.347 385.272C388.665 385.272 388.97 385.398 389.194 385.623C389.419 385.848 389.545 386.153 389.545 386.471C389.545 386.789 389.419 387.094 389.194 387.319C388.97 387.544 388.665 387.67 388.347 387.67C388.029 387.67 387.725 387.544 387.5 387.319C387.275 387.094 387.149 386.789 387.149 386.471C387.149 386.153 387.275 385.848 387.5 385.623C387.725 385.398 388.029 385.272 388.347 385.272Z" fill="white"/>
<path d="M96.0145 201.414C96.2514 201.414 96.4831 201.484 96.6801 201.616C96.8772 201.748 97.0307 201.935 97.1214 202.154C97.2121 202.373 97.2358 202.614 97.1896 202.847C97.1434 203.079 97.0293 203.293 96.8617 203.461C96.6941 203.628 96.4806 203.743 96.2482 203.789C96.0158 203.835 95.7749 203.811 95.5559 203.721C95.337 203.63 95.1499 203.476 95.0182 203.279C94.8865 203.082 94.8163 202.85 94.8163 202.613C94.8163 202.295 94.9425 201.99 95.1672 201.765C95.3919 201.54 95.6967 201.414 96.0145 201.414V201.414Z" fill="white"/>
<path d="M341.844 187.919C342.084 187.919 342.318 187.992 342.516 188.127C342.715 188.262 342.868 188.453 342.956 188.676C343.045 188.899 343.064 189.144 343.012 189.378C342.96 189.612 342.839 189.826 342.665 189.99C342.49 190.155 342.27 190.264 342.034 190.302C341.797 190.34 341.554 190.307 341.337 190.205C341.119 190.104 340.937 189.94 340.814 189.734C340.691 189.528 340.633 189.29 340.646 189.05C340.663 188.744 340.797 188.456 341.02 188.246C341.243 188.036 341.538 187.919 341.844 187.919V187.919Z" fill="white"/>
<path d="M229.023 72.3941C229.023 71.7319 228.487 71.1951 227.825 71.1951C227.164 71.1951 226.627 71.7319 226.627 72.3941C226.627 73.0563 227.164 73.5931 227.825 73.5931C228.487 73.5931 229.023 73.0563 229.023 72.3941Z" fill="white"/>
<path d="M126.749 -6.25611e-08C126.986 -7.292e-08 127.217 0.0703318 127.414 0.202085C127.612 0.333839 127.765 0.521099 127.856 0.740197C127.946 0.959294 127.97 1.20044 127.924 1.43303C127.878 1.66562 127.764 1.87926 127.596 2.04695C127.428 2.21464 127.215 2.32884 126.983 2.37511C126.75 2.42137 126.509 2.39758 126.29 2.30682C126.071 2.21607 125.884 2.06241 125.753 1.86523C125.621 1.66805 125.551 1.4362 125.551 1.19905C125.551 0.88104 125.677 0.576081 125.902 0.351215C126.126 0.12635 126.431 -4.86707e-08 126.749 -6.25611e-08V-6.25611e-08Z" fill="white"/>
<path d="M250.76 214.366C250.997 214.366 251.229 214.436 251.426 214.568C251.623 214.699 251.776 214.887 251.867 215.106C251.958 215.325 251.982 215.566 251.935 215.799C251.889 216.031 251.775 216.245 251.607 216.412C251.44 216.58 251.226 216.694 250.994 216.741C250.762 216.787 250.521 216.763 250.302 216.672C250.083 216.582 249.896 216.428 249.764 216.231C249.632 216.034 249.562 215.802 249.562 215.565C249.562 215.247 249.688 214.942 249.913 214.717C250.138 214.492 250.442 214.366 250.76 214.366V214.366Z" fill="white"/>
<path d="M42.5486 215.565C42.7856 215.565 43.0172 215.635 43.2143 215.767C43.4113 215.898 43.5649 216.086 43.6556 216.305C43.7463 216.524 43.77 216.765 43.7238 216.998C43.6775 217.23 43.5634 217.444 43.3959 217.611C43.2283 217.779 43.0148 217.893 42.7824 217.94C42.5499 217.986 42.309 217.962 42.0901 217.871C41.8711 217.781 41.684 217.627 41.5524 217.43C41.4207 217.233 41.3504 217.001 41.3504 216.764C41.3504 216.446 41.4767 216.141 41.7014 215.916C41.9261 215.691 42.2308 215.565 42.5486 215.565V215.565Z" fill="white"/>
<path d="M163.813 359.685C164.05 359.685 164.282 359.756 164.479 359.887C164.676 360.019 164.83 360.206 164.92 360.425C165.011 360.645 165.035 360.886 164.988 361.118C164.942 361.351 164.828 361.564 164.66 361.732C164.493 361.9 164.279 362.014 164.047 362.06C163.815 362.107 163.574 362.083 163.355 361.992C163.136 361.901 162.949 361.748 162.817 361.55C162.685 361.353 162.615 361.121 162.615 360.884C162.615 360.566 162.741 360.261 162.966 360.036C163.191 359.812 163.495 359.685 163.813 359.685Z" fill="white"/>
</g>
<defs>
<clipPath id="clip0_10_2">
<rect width="790" height="511" fill="white" transform="translate(-21 790) rotate(-90)"/>
</clipPath>
</defs>
</svg>
